ISO-10303-21;
HEADER;
/* Generated by software containing ST-Developer
 * from STEP Tools, Inc. (www.steptools.com) 
 */
/* OPTION: using custom renumber hook */

FILE_DESCRIPTION(
/* description */ ('STEP AP242 Edition 2',
'CAx-IF Rec.Pracs.---Representation and Presentation of Product Manufa
cturing Information (PMI)---4.0---2014-10-13',
'CAx-IF Rec.Pracs.---3D Tessellated Geometry---0.4---2014-09-14','2;1',
'CAx-IF Rec.Pracs.---User Defined Attributes---1.5---2016-08-15'),
/* implementation_level */ '2;1');

FILE_NAME(
/* name */ 'marker_rig_mount_test Copy 1 - Part 1',
/* time_stamp */ '2026-09-04T07:59:24Z',
/* author */ (''),
/* organization */ (''),
/* preprocessor_version */ 'ST-DEVELOPER v20',
/* originating_system */ 'ONSHAPE BY PTC INC, 1.220',
/* authorisation */ '  ');

FILE_SCHEMA (('AP242_MANAGED_MODEL_BASED_3D_ENGINEERING_MIM_LF { 1 0 10303 442 3 1 4 }'));
ENDSEC;

DATA;
#10=SHAPE_REPRESENTATION_RELATIONSHIP('','',#1158,#11);
#11=ADVANCED_BREP_SHAPE_REPRESENTATION('',(#1156),#1824);
#12=B_SPLINE_SURFACE_WITH_KNOTS('',3,1,((#1752,#1753),(#1754,#1755),(#1756,
#1757),(#1758,#1759)),.RULED_SURF.,.F.,.F.,.F.,(4,4),(2,2),(0.,1.),(0.,
1.),.PIECEWISE_BEZIER_KNOTS.);
#13=B_SPLINE_SURFACE_WITH_KNOTS('',3,1,((#1804,#1805),(#1806,#1807),(#1808,
#1809),(#1810,#1811)),.RULED_SURF.,.F.,.F.,.F.,(4,4),(2,2),(0.,1.),(0.,
1.),.PIECEWISE_BEZIER_KNOTS.);
#14=OVER_RIDING_STYLED_ITEM('',(#1083),#1050,#1081);
#15=OVER_RIDING_STYLED_ITEM('',(#1084),#1052,#1081);
#16=OVER_RIDING_STYLED_ITEM('',(#1085),#1055,#1081);
#17=OVER_RIDING_STYLED_ITEM('',(#1086),#1058,#1081);
#18=OVER_RIDING_STYLED_ITEM('',(#1087),#1061,#1081);
#19=OVER_RIDING_STYLED_ITEM('',(#1088),#1063,#1081);
#20=OVER_RIDING_STYLED_ITEM('',(#1089),#1065,#1081);
#21=OVER_RIDING_STYLED_ITEM('',(#1090),#1067,#1081);
#22=OVER_RIDING_STYLED_ITEM('',(#1091),#1070,#1081);
#23=OVER_RIDING_STYLED_ITEM('',(#1092),#1074,#1081);
#24=OVER_RIDING_STYLED_ITEM('',(#1093),#1077,#1081);
#25=DRAUGHTING_PRE_DEFINED_COLOUR('red');
#26=DRAUGHTING_PRE_DEFINED_COLOUR('black');
#27=DRAUGHTING_PRE_DEFINED_COLOUR('blue');
#28=SPHERICAL_SURFACE('',#1189,12.68);
#29=SPHERICAL_SURFACE('',#1235,7.5);
#30=LINE('',#1527,#156);
#31=LINE('',#1530,#157);
#32=LINE('',#1532,#158);
#33=LINE('',#1534,#159);
#34=LINE('',#1538,#160);
#35=LINE('',#1541,#161);
#36=LINE('',#1542,#162);
#37=LINE('',#1544,#163);
#38=LINE('',#1547,#164);
#39=LINE('',#1549,#165);
#40=LINE('',#1551,#166);
#41=LINE('',#1553,#167);
#42=LINE('',#1556,#168);
#43=LINE('',#1557,#169);
#44=LINE('',#1559,#170);
#45=LINE('',#1562,#171);
#46=LINE('',#1564,#172);
#47=LINE('',#1566,#173);
#48=LINE('',#1568,#174);
#49=LINE('',#1571,#175);
#50=LINE('',#1573,#176);
#51=LINE('',#1575,#177);
#52=LINE('',#1577,#178);
#53=LINE('',#1580,#179);
#54=LINE('',#1581,#180);
#55=LINE('',#1583,#181);
#56=LINE('',#1585,#182);
#57=LINE('',#1587,#183);
#58=LINE('',#1589,#184);
#59=LINE('',#1591,#185);
#60=LINE('',#1593,#186);
#61=LINE('',#1595,#187);
#62=LINE('',#1598,#188);
#63=LINE('',#1599,#189);
#64=LINE('',#1601,#190);
#65=LINE('',#1603,#191);
#66=LINE('',#1605,#192);
#67=LINE('',#1607,#193);
#68=LINE('',#1609,#194);
#69=LINE('',#1611,#195);
#70=LINE('',#1613,#196);
#71=LINE('',#1614,#197);
#72=LINE('',#1616,#198);
#73=LINE('',#1618,#199);
#74=LINE('',#1620,#200);
#75=LINE('',#1622,#201);
#76=LINE('',#1625,#202);
#77=LINE('',#1626,#203);
#78=LINE('',#1627,#204);
#79=LINE('',#1629,#205);
#80=LINE('',#1631,#206);
#81=LINE('',#1633,#207);
#82=LINE('',#1634,#208);
#83=LINE('',#1636,#209);
#84=LINE('',#1638,#210);
#85=LINE('',#1640,#211);
#86=LINE('',#1641,#212);
#87=LINE('',#1644,#213);
#88=LINE('',#1646,#214);
#89=LINE('',#1648,#215);
#90=LINE('',#1671,#216);
#91=LINE('',#1674,#217);
#92=LINE('',#1676,#218);
#93=LINE('',#1678,#219);
#94=LINE('',#1680,#220);
#95=LINE('',#1682,#221);
#96=LINE('',#1684,#222);
#97=LINE('',#1686,#223);
#98=LINE('',#1688,#224);
#99=LINE('',#1690,#225);
#100=LINE('',#1692,#226);
#101=LINE('',#1695,#227);
#102=LINE('',#1696,#228);
#103=LINE('',#1698,#229);
#104=LINE('',#1700,#230);
#105=LINE('',#1702,#231);
#106=LINE('',#1704,#232);
#107=LINE('',#1708,#233);
#108=LINE('',#1710,#234);
#109=LINE('',#1712,#235);
#110=LINE('',#1714,#236);
#111=LINE('',#1716,#237);
#112=LINE('',#1718,#238);
#113=LINE('',#1720,#239);
#114=LINE('',#1722,#240);
#115=LINE('',#1724,#241);
#116=LINE('',#1726,#242);
#117=LINE('',#1728,#243);
#118=LINE('',#1730,#244);
#119=LINE('',#1732,#245);
#120=LINE('',#1733,#246);
#121=LINE('',#1735,#247);
#122=LINE('',#1737,#248);
#123=LINE('',#1739,#249);
#124=LINE('',#1741,#250);
#125=LINE('',#1744,#251);
#126=LINE('',#1745,#252);
#127=LINE('',#1747,#253);
#128=LINE('',#1748,#254);
#129=LINE('',#1750,#255);
#130=LINE('',#1751,#256);
#131=LINE('',#1760,#257);
#132=LINE('',#1761,#258);
#133=LINE('',#1765,#259);
#134=LINE('',#1767,#260);
#135=LINE('',#1769,#261);
#136=LINE('',#1771,#262);
#137=LINE('',#1773,#263);
#138=LINE('',#1775,#264);
#139=LINE('',#1777,#265);
#140=LINE('',#1779,#266);
#141=LINE('',#1781,#267);
#142=LINE('',#1783,#268);
#143=LINE('',#1785,#269);
#144=LINE('',#1787,#270);
#145=LINE('',#1789,#271);
#146=LINE('',#1791,#272);
#147=LINE('',#1793,#273);
#148=LINE('',#1795,#274);
#149=LINE('',#1797,#275);
#150=LINE('',#1799,#276);
#151=LINE('',#1801,#277);
#152=LINE('',#1803,#278);
#153=LINE('',#1812,#279);
#154=LINE('',#1816,#280);
#155=LINE('',#1817,#281);
#156=VECTOR('',#1250,1000.);
#157=VECTOR('',#1251,1000.);
#158=VECTOR('',#1252,1000.);
#159=VECTOR('',#1253,1000.);
#160=VECTOR('',#1258,1000.);
#161=VECTOR('',#1259,1000.);
#162=VECTOR('',#1260,1000.);
#163=VECTOR('',#1263,1000.);
#164=VECTOR('',#1264,1000.);
#165=VECTOR('',#1265,1000.);
#166=VECTOR('',#1266,1000.);
#167=VECTOR('',#1269,1000.);
#168=VECTOR('',#1270,1000.);
#169=VECTOR('',#1271,1000.);
#170=VECTOR('',#1274,1000.);
#171=VECTOR('',#1275,1000.);
#172=VECTOR('',#1276,1000.);
#173=VECTOR('',#1277,1000.);
#174=VECTOR('',#1280,1000.);
#175=VECTOR('',#1281,1000.);
#176=VECTOR('',#1282,1000.);
#177=VECTOR('',#1283,1000.);
#178=VECTOR('',#1286,1000.);
#179=VECTOR('',#1287,1000.);
#180=VECTOR('',#1288,1000.);
#181=VECTOR('',#1291,1000.);
#182=VECTOR('',#1292,1000.);
#183=VECTOR('',#1293,1000.);
#184=VECTOR('',#1296,1000.);
#185=VECTOR('',#1297,1000.);
#186=VECTOR('',#1298,1000.);
#187=VECTOR('',#1301,1000.);
#188=VECTOR('',#1302,1000.);
#189=VECTOR('',#1303,1000.);
#190=VECTOR('',#1306,1000.);
#191=VECTOR('',#1307,1000.);
#192=VECTOR('',#1308,1000.);
#193=VECTOR('',#1311,1000.);
#194=VECTOR('',#1312,1000.);
#195=VECTOR('',#1313,1000.);
#196=VECTOR('',#1316,1000.);
#197=VECTOR('',#1317,1000.);
#198=VECTOR('',#1320,1000.);
#199=VECTOR('',#1321,1000.);
#200=VECTOR('',#1322,1000.);
#201=VECTOR('',#1325,1000.);
#202=VECTOR('',#1326,1000.);
#203=VECTOR('',#1327,1000.);
#204=VECTOR('',#1328,1000.);
#205=VECTOR('',#1329,1000.);
#206=VECTOR('',#1330,1000.);
#207=VECTOR('',#1333,1000.);
#208=VECTOR('',#1334,1000.);
#209=VECTOR('',#1337,1000.);
#210=VECTOR('',#1338,1000.);
#211=VECTOR('',#1339,1000.);
#212=VECTOR('',#1340,1000.);
#213=VECTOR('',#1345,1000.);
#214=VECTOR('',#1348,1000.);
#215=VECTOR('',#1351,1000.);
#216=VECTOR('',#1382,1000.);
#217=VECTOR('',#1383,1000.);
#218=VECTOR('',#1384,1000.);
#219=VECTOR('',#1385,1000.);
#220=VECTOR('',#1388,1000.);
#221=VECTOR('',#1389,1000.);
#222=VECTOR('',#1390,1000.);
#223=VECTOR('',#1393,1000.);
#224=VECTOR('',#1394,1000.);
#225=VECTOR('',#1395,1000.);
#226=VECTOR('',#1398,1000.);
#227=VECTOR('',#1399,1000.);
#228=VECTOR('',#1400,1000.);
#229=VECTOR('',#1403,1000.);
#230=VECTOR('',#1404,1000.);
#231=VECTOR('',#1407,1000.);
#232=VECTOR('',#1408,1000.);
#233=VECTOR('',#1413,1000.);
#234=VECTOR('',#1414,1000.);
#235=VECTOR('',#1415,1000.);
#236=VECTOR('',#1416,1000.);
#237=VECTOR('',#1419,1000.);
#238=VECTOR('',#1420,1000.);
#239=VECTOR('',#1421,1000.);
#240=VECTOR('',#1422,1000.);
#241=VECTOR('',#1425,1000.);
#242=VECTOR('',#1426,1000.);
#243=VECTOR('',#1427,1000.);
#244=VECTOR('',#1428,1000.);
#245=VECTOR('',#1431,1000.);
#246=VECTOR('',#1432,1000.);
#247=VECTOR('',#1433,1000.);
#248=VECTOR('',#1436,1000.);
#249=VECTOR('',#1437,1000.);
#250=VECTOR('',#1440,1000.);
#251=VECTOR('',#1441,1000.);
#252=VECTOR('',#1442,1000.);
#253=VECTOR('',#1445,1000.);
#254=VECTOR('',#1446,1000.);
#255=VECTOR('',#1449,1000.);
#256=VECTOR('',#1450,1000.);
#257=VECTOR('',#1451,1000.);
#258=VECTOR('',#1452,1000.);
#259=VECTOR('',#1459,1000.);
#260=VECTOR('',#1460,1000.);
#261=VECTOR('',#1461,1000.);
#262=VECTOR('',#1464,1000.);
#263=VECTOR('',#1465,1000.);
#264=VECTOR('',#1466,1000.);
#265=VECTOR('',#1469,1000.);
#266=VECTOR('',#1470,1000.);
#267=VECTOR('',#1473,1000.);
#268=VECTOR('',#1474,1000.);
#269=VECTOR('',#1477,1000.);
#270=VECTOR('',#1480,1000.);
#271=VECTOR('',#1481,1000.);
#272=VECTOR('',#1484,1000.);
#273=VECTOR('',#1485,1000.);
#274=VECTOR('',#1488,1000.);
#275=VECTOR('',#1491,1000.);
#276=VECTOR('',#1492,1000.);
#277=VECTOR('',#1495,1000.);
#278=VECTOR('',#1496,1000.);
#279=VECTOR('',#1497,1000.);
#280=VECTOR('',#1504,1000.);
#281=VECTOR('',#1505,1000.);
#282=PLANE('',#1165);
#283=PLANE('',#1166);
#284=PLANE('',#1168);
#285=PLANE('',#1169);
#286=PLANE('',#1170);
#287=PLANE('',#1171);
#288=PLANE('',#1172);
#289=PLANE('',#1173);
#290=PLANE('',#1174);
#291=PLANE('',#1175);
#292=PLANE('',#1176);
#293=PLANE('',#1177);
#294=PLANE('',#1178);
#295=PLANE('',#1179);
#296=PLANE('',#1180);
#297=PLANE('',#1181);
#298=PLANE('',#1182);
#299=PLANE('',#1183);
#300=PLANE('',#1184);
#301=PLANE('',#1185);
#302=PLANE('',#1186);
#303=PLANE('',#1187);
#304=PLANE('',#1201);
#305=PLANE('',#1202);
#306=PLANE('',#1203);
#307=PLANE('',#1204);
#308=PLANE('',#1205);
#309=PLANE('',#1206);
#310=PLANE('',#1207);
#311=PLANE('',#1209);
#312=PLANE('',#1210);
#313=PLANE('',#1211);
#314=PLANE('',#1212);
#315=PLANE('',#1213);
#316=PLANE('',#1214);
#317=PLANE('',#1215);
#318=PLANE('',#1216);
#319=PLANE('',#1217);
#320=PLANE('',#1218);
#321=PLANE('',#1219);
#322=PLANE('',#1220);
#323=PLANE('',#1221);
#324=PLANE('',#1222);
#325=PLANE('',#1223);
#326=PLANE('',#1224);
#327=PLANE('',#1225);
#328=PLANE('',#1226);
#329=PLANE('',#1227);
#330=PLANE('',#1228);
#331=PLANE('',#1229);
#332=PLANE('',#1230);
#333=PLANE('',#1231);
#334=PLANE('',#1232);
#335=ELLIPSE('',#1162,16.3149566848437,7.5);
#336=ELLIPSE('',#1163,16.3149566848437,7.5);
#337=ELLIPSE('',#1194,12.9903827108146,7.5);
#338=ELLIPSE('',#1196,16.3149609414373,7.5);
#339=ELLIPSE('',#1200,16.3149609414373,7.5);
#340=ORIENTED_EDGE('',*,*,#624,.T.);
#341=ORIENTED_EDGE('',*,*,#625,.F.);
#342=ORIENTED_EDGE('',*,*,#626,.F.);
#343=ORIENTED_EDGE('',*,*,#627,.F.);
#344=ORIENTED_EDGE('',*,*,#628,.F.);
#345=ORIENTED_EDGE('',*,*,#629,.T.);
#346=ORIENTED_EDGE('',*,*,#630,.T.);
#347=ORIENTED_EDGE('',*,*,#631,.F.);
#348=ORIENTED_EDGE('',*,*,#632,.F.);
#349=ORIENTED_EDGE('',*,*,#633,.F.);
#350=ORIENTED_EDGE('',*,*,#634,.T.);
#351=ORIENTED_EDGE('',*,*,#628,.T.);
#352=ORIENTED_EDGE('',*,*,#635,.F.);
#353=ORIENTED_EDGE('',*,*,#636,.F.);
#354=ORIENTED_EDGE('',*,*,#637,.F.);
#355=ORIENTED_EDGE('',*,*,#638,.T.);
#356=ORIENTED_EDGE('',*,*,#639,.T.);
#357=ORIENTED_EDGE('',*,*,#640,.T.);
#358=ORIENTED_EDGE('',*,*,#641,.T.);
#359=ORIENTED_EDGE('',*,*,#639,.F.);
#360=ORIENTED_EDGE('',*,*,#642,.F.);
#361=ORIENTED_EDGE('',*,*,#643,.F.);
#362=ORIENTED_EDGE('',*,*,#644,.T.);
#363=ORIENTED_EDGE('',*,*,#645,.F.);
#364=ORIENTED_EDGE('',*,*,#646,.F.);
#365=ORIENTED_EDGE('',*,*,#647,.F.);
#366=ORIENTED_EDGE('',*,*,#648,.F.);
#367=ORIENTED_EDGE('',*,*,#649,.F.);
#368=ORIENTED_EDGE('',*,*,#650,.F.);
#369=ORIENTED_EDGE('',*,*,#651,.F.);
#370=ORIENTED_EDGE('',*,*,#652,.T.);
#371=ORIENTED_EDGE('',*,*,#633,.T.);
#372=ORIENTED_EDGE('',*,*,#653,.F.);
#373=ORIENTED_EDGE('',*,*,#654,.F.);
#374=ORIENTED_EDGE('',*,*,#651,.T.);
#375=ORIENTED_EDGE('',*,*,#655,.T.);
#376=ORIENTED_EDGE('',*,*,#656,.T.);
#377=ORIENTED_EDGE('',*,*,#657,.F.);
#378=ORIENTED_EDGE('',*,*,#658,.T.);
#379=ORIENTED_EDGE('',*,*,#659,.T.);
#380=ORIENTED_EDGE('',*,*,#630,.F.);
#381=ORIENTED_EDGE('',*,*,#660,.F.);
#382=ORIENTED_EDGE('',*,*,#661,.T.);
#383=ORIENTED_EDGE('',*,*,#650,.T.);
#384=ORIENTED_EDGE('',*,*,#662,.F.);
#385=ORIENTED_EDGE('',*,*,#637,.T.);
#386=ORIENTED_EDGE('',*,*,#663,.T.);
#387=ORIENTED_EDGE('',*,*,#664,.F.);
#388=ORIENTED_EDGE('',*,*,#665,.T.);
#389=ORIENTED_EDGE('',*,*,#644,.F.);
#390=ORIENTED_EDGE('',*,*,#666,.T.);
#391=ORIENTED_EDGE('',*,*,#667,.T.);
#392=ORIENTED_EDGE('',*,*,#668,.F.);
#393=ORIENTED_EDGE('',*,*,#669,.F.);
#394=ORIENTED_EDGE('',*,*,#660,.T.);
#395=ORIENTED_EDGE('',*,*,#670,.T.);
#396=ORIENTED_EDGE('',*,*,#667,.F.);
#397=ORIENTED_EDGE('',*,*,#671,.F.);
#398=ORIENTED_EDGE('',*,*,#640,.F.);
#399=ORIENTED_EDGE('',*,*,#672,.T.);
#400=ORIENTED_EDGE('',*,*,#673,.T.);
#401=ORIENTED_EDGE('',*,*,#674,.F.);
#402=ORIENTED_EDGE('',*,*,#675,.T.);
#403=ORIENTED_EDGE('',*,*,#648,.T.);
#404=ORIENTED_EDGE('',*,*,#676,.F.);
#405=ORIENTED_EDGE('',*,*,#656,.F.);
#406=ORIENTED_EDGE('',*,*,#677,.T.);
#407=ORIENTED_EDGE('',*,*,#678,.T.);
#408=ORIENTED_EDGE('',*,*,#679,.F.);
#409=ORIENTED_EDGE('',*,*,#624,.F.);
#410=ORIENTED_EDGE('',*,*,#680,.T.);
#411=ORIENTED_EDGE('',*,*,#663,.F.);
#412=ORIENTED_EDGE('',*,*,#636,.T.);
#413=ORIENTED_EDGE('',*,*,#641,.F.);
#414=ORIENTED_EDGE('',*,*,#671,.T.);
#415=ORIENTED_EDGE('',*,*,#681,.F.);
#416=ORIENTED_EDGE('',*,*,#677,.F.);
#417=ORIENTED_EDGE('',*,*,#655,.F.);
#418=ORIENTED_EDGE('',*,*,#653,.T.);
#419=ORIENTED_EDGE('',*,*,#635,.T.);
#420=ORIENTED_EDGE('',*,*,#631,.T.);
#421=ORIENTED_EDGE('',*,*,#659,.F.);
#422=ORIENTED_EDGE('',*,*,#646,.T.);
#423=ORIENTED_EDGE('',*,*,#682,.T.);
#424=ORIENTED_EDGE('',*,*,#683,.F.);
#425=ORIENTED_EDGE('',*,*,#684,.F.);
#426=ORIENTED_EDGE('',*,*,#664,.T.);
#427=ORIENTED_EDGE('',*,*,#680,.F.);
#428=ORIENTED_EDGE('',*,*,#658,.F.);
#429=ORIENTED_EDGE('',*,*,#685,.T.);
#430=ORIENTED_EDGE('',*,*,#676,.T.);
#431=ORIENTED_EDGE('',*,*,#647,.T.);
#432=ORIENTED_EDGE('',*,*,#661,.F.);
#433=ORIENTED_EDGE('',*,*,#669,.T.);
#434=ORIENTED_EDGE('',*,*,#666,.F.);
#435=ORIENTED_EDGE('',*,*,#643,.T.);
#436=ORIENTED_EDGE('',*,*,#685,.F.);
#437=ORIENTED_EDGE('',*,*,#657,.T.);
#438=ORIENTED_EDGE('',*,*,#629,.F.);
#439=ORIENTED_EDGE('',*,*,#634,.F.);
#440=ORIENTED_EDGE('',*,*,#652,.F.);
#441=ORIENTED_EDGE('',*,*,#654,.T.);
#442=ORIENTED_EDGE('',*,*,#678,.F.);
#443=ORIENTED_EDGE('',*,*,#681,.T.);
#444=ORIENTED_EDGE('',*,*,#673,.F.);
#445=ORIENTED_EDGE('',*,*,#686,.T.);
#446=ORIENTED_EDGE('',*,*,#687,.T.);
#447=ORIENTED_EDGE('',*,*,#682,.F.);
#448=ORIENTED_EDGE('',*,*,#645,.T.);
#449=ORIENTED_EDGE('',*,*,#668,.T.);
#450=ORIENTED_EDGE('',*,*,#670,.F.);
#451=ORIENTED_EDGE('',*,*,#662,.T.);
#452=ORIENTED_EDGE('',*,*,#649,.T.);
#453=ORIENTED_EDGE('',*,*,#675,.F.);
#454=ORIENTED_EDGE('',*,*,#679,.T.);
#455=ORIENTED_EDGE('',*,*,#686,.F.);
#456=ORIENTED_EDGE('',*,*,#672,.F.);
#457=ORIENTED_EDGE('',*,*,#642,.T.);
#458=ORIENTED_EDGE('',*,*,#638,.F.);
#459=ORIENTED_EDGE('',*,*,#665,.F.);
#460=ORIENTED_EDGE('',*,*,#684,.T.);
#461=ORIENTED_EDGE('',*,*,#688,.F.);
#462=ORIENTED_EDGE('',*,*,#689,.T.);
#463=ORIENTED_EDGE('',*,*,#674,.T.);
#464=ORIENTED_EDGE('',*,*,#688,.T.);
#465=ORIENTED_EDGE('',*,*,#683,.T.);
#466=ORIENTED_EDGE('',*,*,#687,.F.);
#467=ORIENTED_EDGE('',*,*,#690,.T.);
#468=ORIENTED_EDGE('',*,*,#689,.F.);
#469=ORIENTED_EDGE('',*,*,#632,.T.);
#470=ORIENTED_EDGE('',*,*,#690,.F.);
#471=ORIENTED_EDGE('',*,*,#691,.F.);
#472=ORIENTED_EDGE('',*,*,#692,.T.);
#473=ORIENTED_EDGE('',*,*,#625,.T.);
#474=ORIENTED_EDGE('',*,*,#693,.T.);
#475=ORIENTED_EDGE('',*,*,#694,.T.);
#476=ORIENTED_EDGE('',*,*,#695,.F.);
#477=ORIENTED_EDGE('',*,*,#696,.T.);
#478=ORIENTED_EDGE('',*,*,#626,.T.);
#479=ORIENTED_EDGE('',*,*,#692,.F.);
#480=ORIENTED_EDGE('',*,*,#697,.T.);
#481=ORIENTED_EDGE('',*,*,#698,.F.);
#482=ORIENTED_EDGE('',*,*,#699,.F.);
#483=ORIENTED_EDGE('',*,*,#700,.T.);
#484=ORIENTED_EDGE('',*,*,#701,.T.);
#485=ORIENTED_EDGE('',*,*,#702,.F.);
#486=ORIENTED_EDGE('',*,*,#703,.T.);
#487=ORIENTED_EDGE('',*,*,#704,.T.);
#488=ORIENTED_EDGE('',*,*,#700,.F.);
#489=ORIENTED_EDGE('',*,*,#691,.T.);
#490=ORIENTED_EDGE('',*,*,#705,.T.);
#491=ORIENTED_EDGE('',*,*,#698,.T.);
#492=ORIENTED_EDGE('',*,*,#706,.F.);
#493=ORIENTED_EDGE('',*,*,#707,.F.);
#494=ORIENTED_EDGE('',*,*,#708,.T.);
#495=ORIENTED_EDGE('',*,*,#709,.F.);
#496=ORIENTED_EDGE('',*,*,#701,.F.);
#497=ORIENTED_EDGE('',*,*,#710,.T.);
#498=ORIENTED_EDGE('',*,*,#711,.T.);
#499=ORIENTED_EDGE('',*,*,#712,.T.);
#500=ORIENTED_EDGE('',*,*,#706,.T.);
#501=ORIENTED_EDGE('',*,*,#709,.T.);
#502=ORIENTED_EDGE('',*,*,#713,.F.);
#503=ORIENTED_EDGE('',*,*,#710,.F.);
#504=ORIENTED_EDGE('',*,*,#704,.F.);
#505=ORIENTED_EDGE('',*,*,#714,.F.);
#506=ORIENTED_EDGE('',*,*,#715,.F.);
#507=ORIENTED_EDGE('',*,*,#716,.T.);
#508=ORIENTED_EDGE('',*,*,#717,.T.);
#509=ORIENTED_EDGE('',*,*,#718,.T.);
#510=ORIENTED_EDGE('',*,*,#719,.T.);
#511=ORIENTED_EDGE('',*,*,#712,.F.);
#512=ORIENTED_EDGE('',*,*,#720,.F.);
#513=ORIENTED_EDGE('',*,*,#714,.T.);
#514=ORIENTED_EDGE('',*,*,#721,.F.);
#515=ORIENTED_EDGE('',*,*,#722,.F.);
#516=ORIENTED_EDGE('',*,*,#723,.F.);
#517=ORIENTED_EDGE('',*,*,#724,.F.);
#518=ORIENTED_EDGE('',*,*,#725,.T.);
#519=ORIENTED_EDGE('',*,*,#726,.T.);
#520=ORIENTED_EDGE('',*,*,#727,.F.);
#521=ORIENTED_EDGE('',*,*,#718,.F.);
#522=ORIENTED_EDGE('',*,*,#728,.F.);
#523=ORIENTED_EDGE('',*,*,#729,.T.);
#524=ORIENTED_EDGE('',*,*,#730,.T.);
#525=ORIENTED_EDGE('',*,*,#725,.F.);
#526=ORIENTED_EDGE('',*,*,#731,.F.);
#527=ORIENTED_EDGE('',*,*,#729,.F.);
#528=ORIENTED_EDGE('',*,*,#722,.T.);
#529=ORIENTED_EDGE('',*,*,#732,.T.);
#530=ORIENTED_EDGE('',*,*,#733,.T.);
#531=ORIENTED_EDGE('',*,*,#734,.F.);
#532=ORIENTED_EDGE('',*,*,#730,.F.);
#533=ORIENTED_EDGE('',*,*,#735,.T.);
#534=ORIENTED_EDGE('',*,*,#726,.F.);
#535=ORIENTED_EDGE('',*,*,#734,.T.);
#536=ORIENTED_EDGE('',*,*,#736,.T.);
#537=ORIENTED_EDGE('',*,*,#737,.F.);
#538=ORIENTED_EDGE('',*,*,#731,.T.);
#539=ORIENTED_EDGE('',*,*,#738,.T.);
#540=ORIENTED_EDGE('',*,*,#739,.F.);
#541=ORIENTED_EDGE('',*,*,#735,.F.);
#542=ORIENTED_EDGE('',*,*,#699,.T.);
#543=ORIENTED_EDGE('',*,*,#740,.F.);
#544=ORIENTED_EDGE('',*,*,#733,.F.);
#545=ORIENTED_EDGE('',*,*,#741,.T.);
#546=ORIENTED_EDGE('',*,*,#736,.F.);
#547=ORIENTED_EDGE('',*,*,#740,.T.);
#548=ORIENTED_EDGE('',*,*,#705,.F.);
#549=ORIENTED_EDGE('',*,*,#739,.T.);
#550=ORIENTED_EDGE('',*,*,#702,.T.);
#551=ORIENTED_EDGE('',*,*,#741,.F.);
#552=ORIENTED_EDGE('',*,*,#742,.F.);
#553=ORIENTED_EDGE('',*,*,#724,.T.);
#554=ORIENTED_EDGE('',*,*,#717,.F.);
#555=ORIENTED_EDGE('',*,*,#743,.F.);
#556=ORIENTED_EDGE('',*,*,#744,.F.);
#557=ORIENTED_EDGE('',*,*,#720,.T.);
#558=ORIENTED_EDGE('',*,*,#745,.F.);
#559=ORIENTED_EDGE('',*,*,#746,.T.);
#560=ORIENTED_EDGE('',*,*,#747,.F.);
#561=ORIENTED_EDGE('',*,*,#748,.F.);
#562=ORIENTED_EDGE('',*,*,#743,.T.);
#563=ORIENTED_EDGE('',*,*,#716,.F.);
#564=ORIENTED_EDGE('',*,*,#749,.T.);
#565=ORIENTED_EDGE('',*,*,#750,.T.);
#566=ORIENTED_EDGE('',*,*,#745,.T.);
#567=ORIENTED_EDGE('',*,*,#723,.T.);
#568=ORIENTED_EDGE('',*,*,#751,.T.);
#569=ORIENTED_EDGE('',*,*,#751,.F.);
#570=ORIENTED_EDGE('',*,*,#728,.T.);
#571=ORIENTED_EDGE('',*,*,#742,.T.);
#572=ORIENTED_EDGE('',*,*,#752,.F.);
#573=ORIENTED_EDGE('',*,*,#750,.F.);
#574=ORIENTED_EDGE('',*,*,#753,.T.);
#575=ORIENTED_EDGE('',*,*,#754,.T.);
#576=ORIENTED_EDGE('',*,*,#746,.F.);
#577=ORIENTED_EDGE('',*,*,#744,.T.);
#578=ORIENTED_EDGE('',*,*,#748,.T.);
#579=ORIENTED_EDGE('',*,*,#755,.F.);
#580=ORIENTED_EDGE('',*,*,#756,.F.);
#581=ORIENTED_EDGE('',*,*,#757,.F.);
#582=ORIENTED_EDGE('',*,*,#753,.F.);
#583=ORIENTED_EDGE('',*,*,#752,.T.);
#584=ORIENTED_EDGE('',*,*,#756,.T.);
#585=ORIENTED_EDGE('',*,*,#754,.F.);
#586=ORIENTED_EDGE('',*,*,#758,.T.);
#587=ORIENTED_EDGE('',*,*,#759,.T.);
#588=ORIENTED_EDGE('',*,*,#755,.T.);
#589=ORIENTED_EDGE('',*,*,#760,.F.);
#590=ORIENTED_EDGE('',*,*,#761,.F.);
#591=ORIENTED_EDGE('',*,*,#762,.F.);
#592=ORIENTED_EDGE('',*,*,#758,.F.);
#593=ORIENTED_EDGE('',*,*,#757,.T.);
#594=ORIENTED_EDGE('',*,*,#761,.T.);
#595=ORIENTED_EDGE('',*,*,#737,.T.);
#596=ORIENTED_EDGE('',*,*,#707,.T.);
#597=ORIENTED_EDGE('',*,*,#719,.F.);
#598=ORIENTED_EDGE('',*,*,#727,.T.);
#599=ORIENTED_EDGE('',*,*,#721,.T.);
#600=ORIENTED_EDGE('',*,*,#703,.F.);
#601=ORIENTED_EDGE('',*,*,#738,.F.);
#602=ORIENTED_EDGE('',*,*,#732,.F.);
#603=ORIENTED_EDGE('',*,*,#763,.F.);
#604=ORIENTED_EDGE('',*,*,#708,.F.);
#605=ORIENTED_EDGE('',*,*,#764,.T.);
#606=ORIENTED_EDGE('',*,*,#762,.T.);
#607=ORIENTED_EDGE('',*,*,#764,.F.);
#608=ORIENTED_EDGE('',*,*,#713,.T.);
#609=ORIENTED_EDGE('',*,*,#747,.T.);
#610=ORIENTED_EDGE('',*,*,#759,.F.);
#611=ORIENTED_EDGE('',*,*,#695,.T.);
#612=ORIENTED_EDGE('',*,*,#763,.T.);
#613=ORIENTED_EDGE('',*,*,#760,.T.);
#614=ORIENTED_EDGE('',*,*,#749,.F.);
#615=ORIENTED_EDGE('',*,*,#711,.F.);
#616=ORIENTED_EDGE('',*,*,#694,.F.);
#617=ORIENTED_EDGE('',*,*,#765,.T.);
#618=ORIENTED_EDGE('',*,*,#697,.F.);
#619=ORIENTED_EDGE('',*,*,#715,.T.);
#620=ORIENTED_EDGE('',*,*,#627,.T.);
#621=ORIENTED_EDGE('',*,*,#696,.F.);
#622=ORIENTED_EDGE('',*,*,#765,.F.);
#623=ORIENTED_EDGE('',*,*,#693,.F.);
#624=EDGE_CURVE('',#766,#766,#854,.T.);
#625=EDGE_CURVE('',#767,#768,#335,.F.);
#626=EDGE_CURVE('',#769,#767,#336,.F.);
#627=EDGE_CURVE('',#768,#769,#855,.T.);
#628=EDGE_CURVE('',#770,#771,#30,.T.);
#629=EDGE_CURVE('',#770,#772,#31,.T.);
#630=EDGE_CURVE('',#772,#773,#32,.T.);
#631=EDGE_CURVE('',#771,#773,#33,.T.);
#632=EDGE_CURVE('',#774,#774,#856,.T.);
#633=EDGE_CURVE('',#775,#776,#34,.T.);
#634=EDGE_CURVE('',#775,#770,#35,.T.);
#635=EDGE_CURVE('',#776,#771,#36,.T.);
#636=EDGE_CURVE('',#777,#778,#37,.T.);
#637=EDGE_CURVE('',#779,#777,#38,.T.);
#638=EDGE_CURVE('',#779,#780,#39,.T.);
#639=EDGE_CURVE('',#780,#778,#40,.T.);
#640=EDGE_CURVE('',#781,#782,#41,.T.);
#641=EDGE_CURVE('',#782,#778,#42,.T.);
#642=EDGE_CURVE('',#781,#780,#43,.T.);
#643=EDGE_CURVE('',#783,#784,#44,.T.);
#644=EDGE_CURVE('',#783,#785,#45,.T.);
#645=EDGE_CURVE('',#786,#785,#46,.T.);
#646=EDGE_CURVE('',#784,#786,#47,.T.);
#647=EDGE_CURVE('',#787,#788,#48,.T.);
#648=EDGE_CURVE('',#789,#787,#49,.T.);
#649=EDGE_CURVE('',#790,#789,#50,.T.);
#650=EDGE_CURVE('',#788,#790,#51,.T.);
#651=EDGE_CURVE('',#791,#792,#52,.T.);
#652=EDGE_CURVE('',#791,#775,#53,.T.);
#653=EDGE_CURVE('',#792,#776,#54,.T.);
#654=EDGE_CURVE('',#791,#793,#55,.T.);
#655=EDGE_CURVE('',#792,#794,#56,.T.);
#656=EDGE_CURVE('',#794,#793,#57,.T.);
#657=EDGE_CURVE('',#795,#772,#58,.T.);
#658=EDGE_CURVE('',#795,#796,#59,.T.);
#659=EDGE_CURVE('',#796,#773,#60,.T.);
#660=EDGE_CURVE('',#797,#798,#61,.T.);
#661=EDGE_CURVE('',#797,#788,#62,.T.);
#662=EDGE_CURVE('',#798,#790,#63,.T.);
#663=EDGE_CURVE('',#777,#799,#64,.T.);
#664=EDGE_CURVE('',#800,#799,#65,.T.);
#665=EDGE_CURVE('',#800,#779,#66,.T.);
#666=EDGE_CURVE('',#783,#801,#67,.T.);
#667=EDGE_CURVE('',#801,#802,#68,.T.);
#668=EDGE_CURVE('',#785,#802,#69,.T.);
#669=EDGE_CURVE('',#797,#801,#70,.T.);
#670=EDGE_CURVE('',#798,#802,#71,.T.);
#671=EDGE_CURVE('',#782,#803,#72,.T.);
#672=EDGE_CURVE('',#781,#804,#73,.T.);
#673=EDGE_CURVE('',#804,#803,#74,.T.);
#674=EDGE_CURVE('',#805,#806,#75,.T.);
#675=EDGE_CURVE('',#805,#789,#76,.T.);
#676=EDGE_CURVE('',#793,#787,#77,.T.);
#677=EDGE_CURVE('',#794,#807,#78,.T.);
#678=EDGE_CURVE('',#807,#808,#79,.T.);
#679=EDGE_CURVE('',#806,#808,#80,.T.);
#680=EDGE_CURVE('',#796,#799,#81,.T.);
#681=EDGE_CURVE('',#807,#803,#82,.T.);
#682=EDGE_CURVE('',#786,#809,#83,.T.);
#683=EDGE_CURVE('',#810,#809,#84,.T.);
#684=EDGE_CURVE('',#800,#810,#85,.T.);
#685=EDGE_CURVE('',#795,#784,#86,.T.);
#686=EDGE_CURVE('',#804,#808,#87,.T.);
#687=EDGE_CURVE('',#805,#809,#88,.T.);
#688=EDGE_CURVE('',#806,#810,#89,.T.);
#689=EDGE_CURVE('',#811,#811,#857,.F.);
#690=EDGE_CURVE('',#812,#812,#858,.F.);
#691=EDGE_CURVE('',#813,#813,#859,.T.);
#692=EDGE_CURVE('',#814,#767,#337,.T.);
#693=EDGE_CURVE('',#768,#815,#860,.T.);
#694=EDGE_CURVE('',#815,#814,#338,.T.);
#695=EDGE_CURVE('',#816,#816,#861,.T.);
#696=EDGE_CURVE('',#817,#769,#862,.T.);
#697=EDGE_CURVE('',#814,#817,#339,.T.);
#698=EDGE_CURVE('',#818,#819,#90,.T.);
#699=EDGE_CURVE('',#820,#818,#91,.T.);
#700=EDGE_CURVE('',#820,#821,#92,.T.);
#701=EDGE_CURVE('',#821,#819,#93,.T.);
#702=EDGE_CURVE('',#822,#820,#94,.T.);
#703=EDGE_CURVE('',#822,#823,#95,.T.);
#704=EDGE_CURVE('',#823,#821,#96,.T.);
#705=EDGE_CURVE('',#824,#818,#97,.T.);
#706=EDGE_CURVE('',#825,#819,#98,.T.);
#707=EDGE_CURVE('',#824,#825,#99,.T.);
#708=EDGE_CURVE('',#826,#827,#100,.T.);
#709=EDGE_CURVE('',#819,#827,#101,.T.);
#710=EDGE_CURVE('',#821,#826,#102,.T.);
#711=EDGE_CURVE('',#827,#828,#103,.T.);
#712=EDGE_CURVE('',#828,#825,#104,.T.);
#713=EDGE_CURVE('',#826,#829,#105,.T.);
#714=EDGE_CURVE('',#829,#823,#106,.T.);
#715=EDGE_CURVE('',#830,#830,#863,.F.);
#716=EDGE_CURVE('',#828,#831,#107,.T.);
#717=EDGE_CURVE('',#831,#832,#108,.T.);
#718=EDGE_CURVE('',#832,#833,#109,.T.);
#719=EDGE_CURVE('',#833,#825,#110,.T.);
#720=EDGE_CURVE('',#829,#834,#111,.T.);
#721=EDGE_CURVE('',#835,#823,#112,.F.);
#722=EDGE_CURVE('',#836,#835,#113,.F.);
#723=EDGE_CURVE('',#834,#836,#114,.T.);
#724=EDGE_CURVE('',#837,#832,#115,.T.);
#725=EDGE_CURVE('',#837,#838,#116,.T.);
#726=EDGE_CURVE('',#838,#839,#117,.T.);
#727=EDGE_CURVE('',#833,#839,#118,.T.);
#728=EDGE_CURVE('',#836,#837,#119,.T.);
#729=EDGE_CURVE('',#836,#840,#120,.T.);
#730=EDGE_CURVE('',#840,#838,#121,.T.);
#731=EDGE_CURVE('',#840,#841,#122,.T.);
#732=EDGE_CURVE('',#835,#841,#123,.T.);
#733=EDGE_CURVE('',#842,#843,#124,.T.);
#734=EDGE_CURVE('',#838,#843,#125,.F.);
#735=EDGE_CURVE('',#840,#842,#126,.F.);
#736=EDGE_CURVE('',#843,#824,#127,.F.);
#737=EDGE_CURVE('',#839,#824,#128,.T.);
#738=EDGE_CURVE('',#841,#822,#129,.F.);
#739=EDGE_CURVE('',#842,#822,#130,.F.);
#740=EDGE_CURVE('',#843,#818,#131,.F.);
#741=EDGE_CURVE('',#842,#820,#132,.T.);
#742=EDGE_CURVE('',#837,#844,#133,.T.);
#743=EDGE_CURVE('',#845,#831,#134,.T.);
#744=EDGE_CURVE('',#844,#845,#135,.T.);
#745=EDGE_CURVE('',#846,#834,#136,.T.);
#746=EDGE_CURVE('',#846,#847,#137,.F.);
#747=EDGE_CURVE('',#829,#847,#138,.T.);
#748=EDGE_CURVE('',#845,#848,#139,.T.);
#749=EDGE_CURVE('',#828,#848,#140,.T.);
#750=EDGE_CURVE('',#849,#846,#141,.T.);
#751=EDGE_CURVE('',#836,#849,#142,.T.);
#752=EDGE_CURVE('',#849,#844,#143,.T.);
#753=EDGE_CURVE('',#849,#850,#144,.F.);
#754=EDGE_CURVE('',#850,#847,#145,.F.);
#755=EDGE_CURVE('',#851,#848,#146,.F.);
#756=EDGE_CURVE('',#844,#851,#147,.F.);
#757=EDGE_CURVE('',#850,#851,#148,.T.);
#758=EDGE_CURVE('',#850,#852,#149,.T.);
#759=EDGE_CURVE('',#852,#847,#150,.T.);
#760=EDGE_CURVE('',#853,#848,#151,.T.);
#761=EDGE_CURVE('',#851,#853,#152,.F.);
#762=EDGE_CURVE('',#852,#853,#153,.T.);
#763=EDGE_CURVE('',#827,#853,#154,.T.);
#764=EDGE_CURVE('',#826,#852,#155,.T.);
#765=EDGE_CURVE('',#815,#817,#864,.T.);
#766=VERTEX_POINT('',#1519);
#767=VERTEX_POINT('',#1521);
#768=VERTEX_POINT('',#1522);
#769=VERTEX_POINT('',#1524);
#770=VERTEX_POINT('',#1528);
#771=VERTEX_POINT('',#1529);
#772=VERTEX_POINT('',#1531);
#773=VERTEX_POINT('',#1533);
#774=VERTEX_POINT('',#1537);
#775=VERTEX_POINT('',#1539);
#776=VERTEX_POINT('',#1540);
#777=VERTEX_POINT('',#1545);
#778=VERTEX_POINT('',#1546);
#779=VERTEX_POINT('',#1548);
#780=VERTEX_POINT('',#1550);
#781=VERTEX_POINT('',#1554);
#782=VERTEX_POINT('',#1555);
#783=VERTEX_POINT('',#1560);
#784=VERTEX_POINT('',#1561);
#785=VERTEX_POINT('',#1563);
#786=VERTEX_POINT('',#1565);
#787=VERTEX_POINT('',#1569);
#788=VERTEX_POINT('',#1570);
#789=VERTEX_POINT('',#1572);
#790=VERTEX_POINT('',#1574);
#791=VERTEX_POINT('',#1578);
#792=VERTEX_POINT('',#1579);
#793=VERTEX_POINT('',#1584);
#794=VERTEX_POINT('',#1586);
#795=VERTEX_POINT('',#1590);
#796=VERTEX_POINT('',#1592);
#797=VERTEX_POINT('',#1596);
#798=VERTEX_POINT('',#1597);
#799=VERTEX_POINT('',#1602);
#800=VERTEX_POINT('',#1604);
#801=VERTEX_POINT('',#1608);
#802=VERTEX_POINT('',#1610);
#803=VERTEX_POINT('',#1617);
#804=VERTEX_POINT('',#1619);
#805=VERTEX_POINT('',#1623);
#806=VERTEX_POINT('',#1624);
#807=VERTEX_POINT('',#1628);
#808=VERTEX_POINT('',#1630);
#809=VERTEX_POINT('',#1637);
#810=VERTEX_POINT('',#1639);
#811=VERTEX_POINT('',#1651);
#812=VERTEX_POINT('',#1654);
#813=VERTEX_POINT('',#1658);
#814=VERTEX_POINT('',#1660);
#815=VERTEX_POINT('',#1662);
#816=VERTEX_POINT('',#1666);
#817=VERTEX_POINT('',#1668);
#818=VERTEX_POINT('',#1672);
#819=VERTEX_POINT('',#1673);
#820=VERTEX_POINT('',#1675);
#821=VERTEX_POINT('',#1677);
#822=VERTEX_POINT('',#1681);
#823=VERTEX_POINT('',#1683);
#824=VERTEX_POINT('',#1687);
#825=VERTEX_POINT('',#1689);
#826=VERTEX_POINT('',#1693);
#827=VERTEX_POINT('',#1694);
#828=VERTEX_POINT('',#1699);
#829=VERTEX_POINT('',#1703);
#830=VERTEX_POINT('',#1707);
#831=VERTEX_POINT('',#1709);
#832=VERTEX_POINT('',#1711);
#833=VERTEX_POINT('',#1713);
#834=VERTEX_POINT('',#1717);
#835=VERTEX_POINT('',#1719);
#836=VERTEX_POINT('',#1721);
#837=VERTEX_POINT('',#1725);
#838=VERTEX_POINT('',#1727);
#839=VERTEX_POINT('',#1729);
#840=VERTEX_POINT('',#1734);
#841=VERTEX_POINT('',#1738);
#842=VERTEX_POINT('',#1742);
#843=VERTEX_POINT('',#1743);
#844=VERTEX_POINT('',#1766);
#845=VERTEX_POINT('',#1768);
#846=VERTEX_POINT('',#1772);
#847=VERTEX_POINT('',#1774);
#848=VERTEX_POINT('',#1778);
#849=VERTEX_POINT('',#1782);
#850=VERTEX_POINT('',#1788);
#851=VERTEX_POINT('',#1792);
#852=VERTEX_POINT('',#1798);
#853=VERTEX_POINT('',#1802);
#854=CIRCLE('',#1161,7.5);
#855=CIRCLE('',#1164,7.5);
#856=CIRCLE('',#1167,2.5);
#857=CIRCLE('',#1188,12.68);
#858=CIRCLE('',#1190,2.5);
#859=CIRCLE('',#1193,7.5);
#860=CIRCLE('',#1195,7.5);
#861=CIRCLE('',#1198,7.5);
#862=CIRCLE('',#1199,7.5);
#863=CIRCLE('',#1208,7.5);
#864=CIRCLE('',#1234,7.5);
#865=EDGE_LOOP('',(#340));
#866=EDGE_LOOP('',(#341,#342,#343));
#867=EDGE_LOOP('',(#344,#345,#346,#347));
#868=EDGE_LOOP('',(#348));
#869=EDGE_LOOP('',(#349,#350,#351,#352));
#870=EDGE_LOOP('',(#353,#354,#355,#356));
#871=EDGE_LOOP('',(#357,#358,#359,#360));
#872=EDGE_LOOP('',(#361,#362,#363,#364));
#873=EDGE_LOOP('',(#365,#366,#367,#368));
#874=EDGE_LOOP('',(#369,#370,#371,#372));
#875=EDGE_LOOP('',(#373,#374,#375,#376));
#876=EDGE_LOOP('',(#377,#378,#379,#380));
#877=EDGE_LOOP('',(#381,#382,#383,#384));
#878=EDGE_LOOP('',(#385,#386,#387,#388));
#879=EDGE_LOOP('',(#389,#390,#391,#392));
#880=EDGE_LOOP('',(#393,#394,#395,#396));
#881=EDGE_LOOP('',(#397,#398,#399,#400));
#882=EDGE_LOOP('',(#401,#402,#403,#404,#405,#406,#407,#408));
#883=EDGE_LOOP('',(#409));
#884=EDGE_LOOP('',(#410,#411,#412,#413,#414,#415,#416,#417,#418,#419,#420,
#421));
#885=EDGE_LOOP('',(#422,#423,#424,#425,#426,#427,#428,#429));
#886=EDGE_LOOP('',(#430,#431,#432,#433,#434,#435,#436,#437,#438,#439,#440,
#441));
#887=EDGE_LOOP('',(#442,#443,#444,#445));
#888=EDGE_LOOP('',(#446,#447,#448,#449,#450,#451,#452,#453));
#889=EDGE_LOOP('',(#454,#455,#456,#457,#458,#459,#460,#461));
#890=EDGE_LOOP('',(#462));
#891=EDGE_LOOP('',(#463,#464,#465,#466));
#892=EDGE_LOOP('',(#467));
#893=EDGE_LOOP('',(#468));
#894=EDGE_LOOP('',(#469));
#895=EDGE_LOOP('',(#470));
#896=EDGE_LOOP('',(#471));
#897=EDGE_LOOP('',(#472,#473,#474,#475));
#898=EDGE_LOOP('',(#476));
#899=EDGE_LOOP('',(#477,#478,#479,#480));
#900=EDGE_LOOP('',(#481,#482,#483,#484));
#901=EDGE_LOOP('',(#485,#486,#487,#488));
#902=EDGE_LOOP('',(#489));
#903=EDGE_LOOP('',(#490,#491,#492,#493));
#904=EDGE_LOOP('',(#494,#495,#496,#497));
#905=EDGE_LOOP('',(#498,#499,#500,#501));
#906=EDGE_LOOP('',(#502,#503,#504,#505));
#907=EDGE_LOOP('',(#506));
#908=EDGE_LOOP('',(#507,#508,#509,#510,#511));
#909=EDGE_LOOP('',(#512,#513,#514,#515,#516));
#910=EDGE_LOOP('',(#517,#518,#519,#520,#521));
#911=EDGE_LOOP('',(#522,#523,#524,#525));
#912=EDGE_LOOP('',(#526,#527,#528,#529));
#913=EDGE_LOOP('',(#530,#531,#532,#533));
#914=EDGE_LOOP('',(#534,#535,#536,#537));
#915=EDGE_LOOP('',(#538,#539,#540,#541));
#916=EDGE_LOOP('',(#542,#543,#544,#545));
#917=EDGE_LOOP('',(#546,#547,#548));
#918=EDGE_LOOP('',(#549,#550,#551));
#919=EDGE_LOOP('',(#552,#553,#554,#555,#556));
#920=EDGE_LOOP('',(#557,#558,#559,#560));
#921=EDGE_LOOP('',(#561,#562,#563,#564));
#922=EDGE_LOOP('',(#565,#566,#567,#568));
#923=EDGE_LOOP('',(#569,#570,#571,#572));
#924=EDGE_LOOP('',(#573,#574,#575,#576));
#925=EDGE_LOOP('',(#577,#578,#579,#580));
#926=EDGE_LOOP('',(#581,#582,#583,#584));
#927=EDGE_LOOP('',(#585,#586,#587));
#928=EDGE_LOOP('',(#588,#589,#590));
#929=EDGE_LOOP('',(#591,#592,#593,#594));
#930=EDGE_LOOP('',(#595,#596,#597,#598));
#931=EDGE_LOOP('',(#599,#600,#601,#602));
#932=EDGE_LOOP('',(#603,#604,#605,#606));
#933=EDGE_LOOP('',(#607,#608,#609,#610));
#934=EDGE_LOOP('',(#611));
#935=EDGE_LOOP('',(#612,#613,#614,#615));
#936=EDGE_LOOP('',(#616,#617,#618));
#937=EDGE_LOOP('',(#619));
#938=EDGE_LOOP('',(#620,#621,#622,#623));
#939=FACE_BOUND('',#865,.T.);
#940=FACE_BOUND('',#866,.T.);
#941=FACE_BOUND('',#867,.T.);
#942=FACE_BOUND('',#868,.T.);
#943=FACE_BOUND('',#869,.T.);
#944=FACE_BOUND('',#870,.T.);
#945=FACE_BOUND('',#871,.T.);
#946=FACE_BOUND('',#872,.T.);
#947=FACE_BOUND('',#873,.T.);
#948=FACE_BOUND('',#874,.T.);
#949=FACE_BOUND('',#875,.T.);
#950=FACE_BOUND('',#876,.T.);
#951=FACE_BOUND('',#877,.T.);
#952=FACE_BOUND('',#878,.T.);
#953=FACE_BOUND('',#879,.T.);
#954=FACE_BOUND('',#880,.T.);
#955=FACE_BOUND('',#881,.T.);
#956=FACE_BOUND('',#882,.T.);
#957=FACE_BOUND('',#883,.T.);
#958=FACE_BOUND('',#884,.T.);
#959=FACE_BOUND('',#885,.T.);
#960=FACE_BOUND('',#886,.T.);
#961=FACE_BOUND('',#887,.T.);
#962=FACE_BOUND('',#888,.T.);
#963=FACE_BOUND('',#889,.T.);
#964=FACE_BOUND('',#890,.T.);
#965=FACE_BOUND('',#891,.T.);
#966=FACE_BOUND('',#892,.T.);
#967=FACE_BOUND('',#893,.T.);
#968=FACE_BOUND('',#894,.T.);
#969=FACE_BOUND('',#895,.T.);
#970=FACE_BOUND('',#896,.T.);
#971=FACE_BOUND('',#897,.T.);
#972=FACE_BOUND('',#898,.T.);
#973=FACE_BOUND('',#899,.T.);
#974=FACE_BOUND('',#900,.T.);
#975=FACE_BOUND('',#901,.T.);
#976=FACE_BOUND('',#902,.T.);
#977=FACE_BOUND('',#903,.T.);
#978=FACE_BOUND('',#904,.T.);
#979=FACE_BOUND('',#905,.T.);
#980=FACE_BOUND('',#906,.T.);
#981=FACE_BOUND('',#907,.T.);
#982=FACE_BOUND('',#908,.T.);
#983=FACE_BOUND('',#909,.T.);
#984=FACE_BOUND('',#910,.T.);
#985=FACE_BOUND('',#911,.T.);
#986=FACE_BOUND('',#912,.T.);
#987=FACE_BOUND('',#913,.T.);
#988=FACE_BOUND('',#914,.T.);
#989=FACE_BOUND('',#915,.T.);
#990=FACE_BOUND('',#916,.T.);
#991=FACE_BOUND('',#917,.T.);
#992=FACE_BOUND('',#918,.T.);
#993=FACE_BOUND('',#919,.T.);
#994=FACE_BOUND('',#920,.T.);
#995=FACE_BOUND('',#921,.T.);
#996=FACE_BOUND('',#922,.T.);
#997=FACE_BOUND('',#923,.T.);
#998=FACE_BOUND('',#924,.T.);
#999=FACE_BOUND('',#925,.T.);
#1000=FACE_BOUND('',#926,.T.);
#1001=FACE_BOUND('',#927,.T.);
#1002=FACE_BOUND('',#928,.T.);
#1003=FACE_BOUND('',#929,.T.);
#1004=FACE_BOUND('',#930,.T.);
#1005=FACE_BOUND('',#931,.T.);
#1006=FACE_BOUND('',#932,.T.);
#1007=FACE_BOUND('',#933,.T.);
#1008=FACE_BOUND('',#934,.T.);
#1009=FACE_BOUND('',#935,.T.);
#1010=FACE_BOUND('',#936,.T.);
#1011=FACE_BOUND('',#937,.T.);
#1012=FACE_BOUND('',#938,.T.);
#1013=CYLINDRICAL_SURFACE('',#1160,7.5);
#1014=CYLINDRICAL_SURFACE('',#1191,2.5);
#1015=CYLINDRICAL_SURFACE('',#1192,7.5);
#1016=CYLINDRICAL_SURFACE('',#1197,7.5);
#1017=CYLINDRICAL_SURFACE('',#1233,7.5);
#1018=ADVANCED_FACE('',(#939,#940),#1013,.T.);
#1019=ADVANCED_FACE('',(#941),#282,.F.);
#1020=ADVANCED_FACE('',(#942,#943),#283,.T.);
#1021=ADVANCED_FACE('',(#944),#284,.F.);
#1022=ADVANCED_FACE('',(#945),#285,.T.);
#1023=ADVANCED_FACE('',(#946),#286,.F.);
#1024=ADVANCED_FACE('',(#947),#287,.F.);
#1025=ADVANCED_FACE('',(#948),#288,.T.);
#1026=ADVANCED_FACE('',(#949),#289,.F.);
#1027=ADVANCED_FACE('',(#950),#290,.F.);
#1028=ADVANCED_FACE('',(#951),#291,.T.);
#1029=ADVANCED_FACE('',(#952),#292,.F.);
#1030=ADVANCED_FACE('',(#953),#293,.F.);
#1031=ADVANCED_FACE('',(#954),#294,.T.);
#1032=ADVANCED_FACE('',(#955),#295,.T.);
#1033=ADVANCED_FACE('',(#956),#296,.F.);
#1034=ADVANCED_FACE('',(#957,#958),#297,.T.);
#1035=ADVANCED_FACE('',(#959),#298,.F.);
#1036=ADVANCED_FACE('',(#960),#299,.F.);
#1037=ADVANCED_FACE('',(#961),#300,.F.);
#1038=ADVANCED_FACE('',(#962),#301,.F.);
#1039=ADVANCED_FACE('',(#963),#302,.T.);
#1040=ADVANCED_FACE('',(#964,#965),#303,.T.);
#1041=ADVANCED_FACE('',(#966,#967),#28,.F.);
#1042=ADVANCED_FACE('',(#968,#969),#1014,.F.);
#1043=ADVANCED_FACE('',(#970,#971),#1015,.T.);
#1044=ADVANCED_FACE('',(#972,#973),#1016,.T.);
#1045=ADVANCED_FACE('',(#974),#304,.T.);
#1046=ADVANCED_FACE('Face appearance 2',(#975),#305,.T.);
#1047=ADVANCED_FACE('',(#976,#977),#306,.F.);
#1048=ADVANCED_FACE('',(#978),#307,.T.);
#1049=ADVANCED_FACE('',(#979),#308,.T.);
#1050=ADVANCED_FACE('Face appearance 3',(#980),#309,.F.);
#1051=ADVANCED_FACE('',(#981,#982),#310,.F.);
#1052=ADVANCED_FACE('Face appearance 4',(#983),#311,.T.);
#1053=ADVANCED_FACE('',(#984),#312,.F.);
#1054=ADVANCED_FACE('',(#985),#313,.T.);
#1055=ADVANCED_FACE('Face appearance 3',(#986),#314,.F.);
#1056=ADVANCED_FACE('',(#987),#315,.F.);
#1057=ADVANCED_FACE('',(#988),#316,.T.);
#1058=ADVANCED_FACE('Face appearance 4',(#989),#317,.F.);
#1059=ADVANCED_FACE('',(#990),#12,.T.);
#1060=ADVANCED_FACE('',(#991),#318,.T.);
#1061=ADVANCED_FACE('Face appearance 3',(#992),#319,.T.);
#1062=ADVANCED_FACE('',(#993),#320,.F.);
#1063=ADVANCED_FACE('Face appearance 5',(#994),#321,.T.);
#1064=ADVANCED_FACE('',(#995),#322,.T.);
#1065=ADVANCED_FACE('Face appearance 3',(#996),#323,.F.);
#1066=ADVANCED_FACE('',(#997),#324,.T.);
#1067=ADVANCED_FACE('Face appearance 4',(#998),#325,.F.);
#1068=ADVANCED_FACE('',(#999),#326,.T.);
#1069=ADVANCED_FACE('',(#1000),#327,.F.);
#1070=ADVANCED_FACE('Face appearance 3',(#1001),#328,.T.);
#1071=ADVANCED_FACE('',(#1002),#329,.T.);
#1072=ADVANCED_FACE('',(#1003),#13,.F.);
#1073=ADVANCED_FACE('',(#1004),#330,.T.);
#1074=ADVANCED_FACE('Face appearance 5',(#1005),#331,.T.);
#1075=ADVANCED_FACE('',(#1006),#332,.T.);
#1076=ADVANCED_FACE('',(#1007),#333,.T.);
#1077=ADVANCED_FACE('Face appearance 1',(#1008,#1009),#334,.F.);
#1078=ADVANCED_FACE('',(#1010,#1011),#1017,.T.);
#1079=ADVANCED_FACE('',(#1012),#29,.T.);
#1080=CLOSED_SHELL('',(#1018,#1019,#1020,#1021,#1022,#1023,#1024,#1025,
#1026,#1027,#1028,#1029,#1030,#1031,#1032,#1033,#1034,#1035,#1036,#1037,
#1038,#1039,#1040,#1041,#1042,#1043,#1044,#1045,#1046,#1047,#1048,#1049,
#1050,#1051,#1052,#1053,#1054,#1055,#1056,#1057,#1058,#1059,#1060,#1061,
#1062,#1063,#1064,#1065,#1066,#1067,#1068,#1069,#1070,#1071,#1072,#1073,
#1074,#1075,#1076,#1077,#1078,#1079));
#1081=STYLED_ITEM('',(#1082),#1156);
#1082=PRESENTATION_STYLE_ASSIGNMENT((#1094));
#1083=PRESENTATION_STYLE_ASSIGNMENT((#1095));
#1084=PRESENTATION_STYLE_ASSIGNMENT((#1096));
#1085=PRESENTATION_STYLE_ASSIGNMENT((#1097));
#1086=PRESENTATION_STYLE_ASSIGNMENT((#1098));
#1087=PRESENTATION_STYLE_ASSIGNMENT((#1099));
#1088=PRESENTATION_STYLE_ASSIGNMENT((#1100));
#1089=PRESENTATION_STYLE_ASSIGNMENT((#1101));
#1090=PRESENTATION_STYLE_ASSIGNMENT((#1102));
#1091=PRESENTATION_STYLE_ASSIGNMENT((#1103));
#1092=PRESENTATION_STYLE_ASSIGNMENT((#1104));
#1093=PRESENTATION_STYLE_ASSIGNMENT((#1105));
#1094=SURFACE_STYLE_USAGE(.BOTH.,#1106);
#1095=SURFACE_STYLE_USAGE(.BOTH.,#1107);
#1096=SURFACE_STYLE_USAGE(.BOTH.,#1108);
#1097=SURFACE_STYLE_USAGE(.BOTH.,#1109);
#1098=SURFACE_STYLE_USAGE(.BOTH.,#1110);
#1099=SURFACE_STYLE_USAGE(.BOTH.,#1111);
#1100=SURFACE_STYLE_USAGE(.BOTH.,#1112);
#1101=SURFACE_STYLE_USAGE(.BOTH.,#1113);
#1102=SURFACE_STYLE_USAGE(.BOTH.,#1114);
#1103=SURFACE_STYLE_USAGE(.BOTH.,#1115);
#1104=SURFACE_STYLE_USAGE(.BOTH.,#1116);
#1105=SURFACE_STYLE_USAGE(.BOTH.,#1117);
#1106=SURFACE_SIDE_STYLE('',(#1118));
#1107=SURFACE_SIDE_STYLE('',(#1119));
#1108=SURFACE_SIDE_STYLE('',(#1120));
#1109=SURFACE_SIDE_STYLE('',(#1121));
#1110=SURFACE_SIDE_STYLE('',(#1122));
#1111=SURFACE_SIDE_STYLE('',(#1123));
#1112=SURFACE_SIDE_STYLE('',(#1124));
#1113=SURFACE_SIDE_STYLE('',(#1125));
#1114=SURFACE_SIDE_STYLE('',(#1126));
#1115=SURFACE_SIDE_STYLE('',(#1127));
#1116=SURFACE_SIDE_STYLE('',(#1128));
#1117=SURFACE_SIDE_STYLE('',(#1129));
#1118=SURFACE_STYLE_FILL_AREA(#1130);
#1119=SURFACE_STYLE_FILL_AREA(#1131);
#1120=SURFACE_STYLE_FILL_AREA(#1132);
#1121=SURFACE_STYLE_FILL_AREA(#1133);
#1122=SURFACE_STYLE_FILL_AREA(#1134);
#1123=SURFACE_STYLE_FILL_AREA(#1135);
#1124=SURFACE_STYLE_FILL_AREA(#1136);
#1125=SURFACE_STYLE_FILL_AREA(#1137);
#1126=SURFACE_STYLE_FILL_AREA(#1138);
#1127=SURFACE_STYLE_FILL_AREA(#1139);
#1128=SURFACE_STYLE_FILL_AREA(#1140);
#1129=SURFACE_STYLE_FILL_AREA(#1141);
#1130=FILL_AREA_STYLE('',(#1142));
#1131=FILL_AREA_STYLE('',(#1143));
#1132=FILL_AREA_STYLE('',(#1144));
#1133=FILL_AREA_STYLE('',(#1145));
#1134=FILL_AREA_STYLE('',(#1146));
#1135=FILL_AREA_STYLE('',(#1147));
#1136=FILL_AREA_STYLE('',(#1148));
#1137=FILL_AREA_STYLE('',(#1149));
#1138=FILL_AREA_STYLE('',(#1150));
#1139=FILL_AREA_STYLE('',(#1151));
#1140=FILL_AREA_STYLE('',(#1152));
#1141=FILL_AREA_STYLE('',(#1153));
#1142=FILL_AREA_STYLE_COLOUR('',#1154);
#1143=FILL_AREA_STYLE_COLOUR('',#25);
#1144=FILL_AREA_STYLE_COLOUR('',#26);
#1145=FILL_AREA_STYLE_COLOUR('',#25);
#1146=FILL_AREA_STYLE_COLOUR('',#26);
#1147=FILL_AREA_STYLE_COLOUR('',#25);
#1148=FILL_AREA_STYLE_COLOUR('',#27);
#1149=FILL_AREA_STYLE_COLOUR('',#25);
#1150=FILL_AREA_STYLE_COLOUR('',#26);
#1151=FILL_AREA_STYLE_COLOUR('',#25);
#1152=FILL_AREA_STYLE_COLOUR('',#27);
#1153=FILL_AREA_STYLE_COLOUR('',#1155);
#1154=COLOUR_RGB('',0.615686274509804,0.811764705882353,0.929411764705882);
#1155=COLOUR_RGB('',0.647058823529412,0.647058823529412,0.647058823529412);
#1156=MANIFOLD_SOLID_BREP('Part 1',#1080);
#1157=SHAPE_DEFINITION_REPRESENTATION(#1829,#1158);
#1158=SHAPE_REPRESENTATION('Part 1',(#1159),#1824);
#1159=AXIS2_PLACEMENT_3D('',#1516,#1236,#1237);
#1160=AXIS2_PLACEMENT_3D('',#1517,#1238,#1239);
#1161=AXIS2_PLACEMENT_3D('',#1518,#1240,#1241);
#1162=AXIS2_PLACEMENT_3D('',#1520,#1242,#1243);
#1163=AXIS2_PLACEMENT_3D('',#1523,#1244,#1245);
#1164=AXIS2_PLACEMENT_3D('',#1525,#1246,#1247);
#1165=AXIS2_PLACEMENT_3D('',#1526,#1248,#1249);
#1166=AXIS2_PLACEMENT_3D('',#1535,#1254,#1255);
#1167=AXIS2_PLACEMENT_3D('',#1536,#1256,#1257);
#1168=AXIS2_PLACEMENT_3D('',#1543,#1261,#1262);
#1169=AXIS2_PLACEMENT_3D('',#1552,#1267,#1268);
#1170=AXIS2_PLACEMENT_3D('',#1558,#1272,#1273);
#1171=AXIS2_PLACEMENT_3D('',#1567,#1278,#1279);
#1172=AXIS2_PLACEMENT_3D('',#1576,#1284,#1285);
#1173=AXIS2_PLACEMENT_3D('',#1582,#1289,#1290);
#1174=AXIS2_PLACEMENT_3D('',#1588,#1294,#1295);
#1175=AXIS2_PLACEMENT_3D('',#1594,#1299,#1300);
#1176=AXIS2_PLACEMENT_3D('',#1600,#1304,#1305);
#1177=AXIS2_PLACEMENT_3D('',#1606,#1309,#1310);
#1178=AXIS2_PLACEMENT_3D('',#1612,#1314,#1315);
#1179=AXIS2_PLACEMENT_3D('',#1615,#1318,#1319);
#1180=AXIS2_PLACEMENT_3D('',#1621,#1323,#1324);
#1181=AXIS2_PLACEMENT_3D('',#1632,#1331,#1332);
#1182=AXIS2_PLACEMENT_3D('',#1635,#1335,#1336);
#1183=AXIS2_PLACEMENT_3D('',#1642,#1341,#1342);
#1184=AXIS2_PLACEMENT_3D('',#1643,#1343,#1344);
#1185=AXIS2_PLACEMENT_3D('',#1645,#1346,#1347);
#1186=AXIS2_PLACEMENT_3D('',#1647,#1349,#1350);
#1187=AXIS2_PLACEMENT_3D('',#1649,#1352,#1353);
#1188=AXIS2_PLACEMENT_3D('',#1650,#1354,#1355);
#1189=AXIS2_PLACEMENT_3D('',#1652,#1356,#1357);
#1190=AXIS2_PLACEMENT_3D('',#1653,#1358,#1359);
#1191=AXIS2_PLACEMENT_3D('',#1655,#1360,#1361);
#1192=AXIS2_PLACEMENT_3D('',#1656,#1362,#1363);
#1193=AXIS2_PLACEMENT_3D('',#1657,#1364,#1365);
#1194=AXIS2_PLACEMENT_3D('',#1659,#1366,#1367);
#1195=AXIS2_PLACEMENT_3D('',#1661,#1368,#1369);
#1196=AXIS2_PLACEMENT_3D('',#1663,#1370,#1371);
#1197=AXIS2_PLACEMENT_3D('',#1664,#1372,#1373);
#1198=AXIS2_PLACEMENT_3D('',#1665,#1374,#1375);
#1199=AXIS2_PLACEMENT_3D('',#1667,#1376,#1377);
#1200=AXIS2_PLACEMENT_3D('',#1669,#1378,#1379);
#1201=AXIS2_PLACEMENT_3D('',#1670,#1380,#1381);
#1202=AXIS2_PLACEMENT_3D('',#1679,#1386,#1387);
#1203=AXIS2_PLACEMENT_3D('',#1685,#1391,#1392);
#1204=AXIS2_PLACEMENT_3D('',#1691,#1396,#1397);
#1205=AXIS2_PLACEMENT_3D('',#1697,#1401,#1402);
#1206=AXIS2_PLACEMENT_3D('',#1701,#1405,#1406);
#1207=AXIS2_PLACEMENT_3D('',#1705,#1409,#1410);
#1208=AXIS2_PLACEMENT_3D('',#1706,#1411,#1412);
#1209=AXIS2_PLACEMENT_3D('',#1715,#1417,#1418);
#1210=AXIS2_PLACEMENT_3D('',#1723,#1423,#1424);
#1211=AXIS2_PLACEMENT_3D('',#1731,#1429,#1430);
#1212=AXIS2_PLACEMENT_3D('',#1736,#1434,#1435);
#1213=AXIS2_PLACEMENT_3D('',#1740,#1438,#1439);
#1214=AXIS2_PLACEMENT_3D('',#1746,#1443,#1444);
#1215=AXIS2_PLACEMENT_3D('',#1749,#1447,#1448);
#1216=AXIS2_PLACEMENT_3D('',#1762,#1453,#1454);
#1217=AXIS2_PLACEMENT_3D('',#1763,#1455,#1456);
#1218=AXIS2_PLACEMENT_3D('',#1764,#1457,#1458);
#1219=AXIS2_PLACEMENT_3D('',#1770,#1462,#1463);
#1220=AXIS2_PLACEMENT_3D('',#1776,#1467,#1468);
#1221=AXIS2_PLACEMENT_3D('',#1780,#1471,#1472);
#1222=AXIS2_PLACEMENT_3D('',#1784,#1475,#1476);
#1223=AXIS2_PLACEMENT_3D('',#1786,#1478,#1479);
#1224=AXIS2_PLACEMENT_3D('',#1790,#1482,#1483);
#1225=AXIS2_PLACEMENT_3D('',#1794,#1486,#1487);
#1226=AXIS2_PLACEMENT_3D('',#1796,#1489,#1490);
#1227=AXIS2_PLACEMENT_3D('',#1800,#1493,#1494);
#1228=AXIS2_PLACEMENT_3D('',#1813,#1498,#1499);
#1229=AXIS2_PLACEMENT_3D('',#1814,#1500,#1501);
#1230=AXIS2_PLACEMENT_3D('',#1815,#1502,#1503);
#1231=AXIS2_PLACEMENT_3D('',#1818,#1506,#1507);
#1232=AXIS2_PLACEMENT_3D('',#1819,#1508,#1509);
#1233=AXIS2_PLACEMENT_3D('',#1820,#1510,#1511);
#1234=AXIS2_PLACEMENT_3D('',#1821,#1512,#1513);
#1235=AXIS2_PLACEMENT_3D('',#1822,#1514,#1515);
#1236=DIRECTION('',(0.,0.,1.));
#1237=DIRECTION('',(1.,0.,0.));
#1238=DIRECTION('',(-1.,1.98254111540206E-16,0.));
#1239=DIRECTION('',(-1.98254111540206E-16,-1.,0.));
#1240=DIRECTION('',(1.,-1.98254111540206E-16,0.));
#1241=DIRECTION('',(1.98254111540206E-16,1.,0.));
#1242=DIRECTION('',(-0.459700883359829,0.627962895629754,-0.627963135502784));
#1243=DIRECTION('',(-0.888073813282541,-0.325057549857459,0.32505767402489));
#1244=DIRECTION('',(-0.459700883359829,-0.627962895629754,-0.627963135502785));
#1245=DIRECTION('',(-0.888073813282541,0.325057549857459,0.32505767402489));
#1246=DIRECTION('',(1.,-1.98254111540206E-16,0.));
#1247=DIRECTION('',(1.98254111540206E-16,1.,0.));
#1248=DIRECTION('',(0.,1.,0.));
#1249=DIRECTION('',(0.,0.,1.));
#1250=DIRECTION('',(1.,0.,0.));
#1251=DIRECTION('',(0.,0.,-1.));
#1252=DIRECTION('',(1.,0.,0.));
#1253=DIRECTION('',(0.,0.,-1.));
#1254=DIRECTION('',(0.,0.,1.));
#1255=DIRECTION('',(1.,0.,0.));
#1256=DIRECTION('',(0.,0.,1.));
#1257=DIRECTION('',(1.,0.,0.));
#1258=DIRECTION('',(1.,0.,0.));
#1259=DIRECTION('',(0.,-1.,0.));
#1260=DIRECTION('',(0.,-1.,0.));
#1261=DIRECTION('',(0.,1.,0.));
#1262=DIRECTION('',(0.,0.,-1.));
#1263=DIRECTION('',(0.,0.,-1.));
#1264=DIRECTION('',(1.,0.,0.));
#1265=DIRECTION('',(0.,0.,-1.));
#1266=DIRECTION('',(1.,0.,0.));
#1267=DIRECTION('',(0.,0.,-1.));
#1268=DIRECTION('',(1.,0.,0.));
#1269=DIRECTION('',(1.,0.,0.));
#1270=DIRECTION('',(0.,-1.,0.));
#1271=DIRECTION('',(0.,-1.,0.));
#1272=DIRECTION('',(0.,0.,-1.));
#1273=DIRECTION('',(1.,0.,0.));
#1274=DIRECTION('',(0.,1.,0.));
#1275=DIRECTION('',(1.,0.,0.));
#1276=DIRECTION('',(0.,-1.,0.));
#1277=DIRECTION('',(1.,0.,0.));
#1278=DIRECTION('',(0.,0.,-1.));
#1279=DIRECTION('',(1.,0.,0.));
#1280=DIRECTION('',(0.,1.,0.));
#1281=DIRECTION('',(-1.,0.,0.));
#1282=DIRECTION('',(0.,-1.,0.));
#1283=DIRECTION('',(1.,0.,0.));
#1284=DIRECTION('',(0.,1.,0.));
#1285=DIRECTION('',(0.,0.,1.));
#1286=DIRECTION('',(1.,0.,0.));
#1287=DIRECTION('',(0.,0.,1.));
#1288=DIRECTION('',(0.,0.,1.));
#1289=DIRECTION('',(0.,0.,1.));
#1290=DIRECTION('',(1.,0.,0.));
#1291=DIRECTION('',(0.,-1.,0.));
#1292=DIRECTION('',(0.,-1.,0.));
#1293=DIRECTION('',(-1.,0.,0.));
#1294=DIRECTION('',(0.,0.,1.));
#1295=DIRECTION('',(1.,0.,0.));
#1296=DIRECTION('',(0.,-1.,0.));
#1297=DIRECTION('',(1.,0.,0.));
#1298=DIRECTION('',(0.,-1.,0.));
#1299=DIRECTION('',(0.,1.,0.));
#1300=DIRECTION('',(0.,0.,-1.));
#1301=DIRECTION('',(1.,0.,0.));
#1302=DIRECTION('',(0.,0.,1.));
#1303=DIRECTION('',(0.,0.,1.));
#1304=DIRECTION('',(0.,0.,-1.));
#1305=DIRECTION('',(1.,0.,0.));
#1306=DIRECTION('',(0.,1.,0.));
#1307=DIRECTION('',(1.,0.,0.));
#1308=DIRECTION('',(0.,-1.,0.));
#1309=DIRECTION('',(0.,1.,0.));
#1310=DIRECTION('',(0.,0.,-1.));
#1311=DIRECTION('',(0.,0.,-1.));
#1312=DIRECTION('',(1.,0.,0.));
#1313=DIRECTION('',(0.,0.,-1.));
#1314=DIRECTION('',(0.,0.,-1.));
#1315=DIRECTION('',(1.,0.,0.));
#1316=DIRECTION('',(0.,-1.,0.));
#1317=DIRECTION('',(0.,-1.,0.));
#1318=DIRECTION('',(0.,1.,0.));
#1319=DIRECTION('',(0.,0.,-1.));
#1320=DIRECTION('',(0.,0.,1.));
#1321=DIRECTION('',(0.,0.,1.));
#1322=DIRECTION('',(1.,0.,0.));
#1323=DIRECTION('',(0.,-1.,0.));
#1324=DIRECTION('',(0.,0.,-1.));
#1325=DIRECTION('',(1.,0.,0.));
#1326=DIRECTION('',(0.,0.,-1.));
#1327=DIRECTION('',(0.,0.,-1.));
#1328=DIRECTION('',(0.,0.,-1.));
#1329=DIRECTION('',(-1.,0.,0.));
#1330=DIRECTION('',(0.,0.,-1.));
#1331=DIRECTION('',(1.,-1.98254111540206E-16,0.));
#1332=DIRECTION('',(1.98254111540206E-16,1.,0.));
#1333=DIRECTION('',(0.,0.,-1.));
#1334=DIRECTION('',(0.,1.,0.));
#1335=DIRECTION('',(0.,1.,0.));
#1336=DIRECTION('',(0.,0.,1.));
#1337=DIRECTION('',(0.,0.,1.));
#1338=DIRECTION('',(-1.,0.,0.));
#1339=DIRECTION('',(0.,0.,1.));
#1340=DIRECTION('',(0.,0.,-1.));
#1341=DIRECTION('',(1.,-1.98254111540206E-16,0.));
#1342=DIRECTION('',(1.98254111540206E-16,1.,0.));
#1343=DIRECTION('',(0.,0.,-1.));
#1344=DIRECTION('',(1.,0.,0.));
#1345=DIRECTION('',(0.,-1.,0.));
#1346=DIRECTION('',(-1.,0.,0.));
#1347=DIRECTION('',(0.,0.,1.));
#1348=DIRECTION('',(0.,-1.,0.));
#1349=DIRECTION('',(-1.,0.,0.));
#1350=DIRECTION('',(0.,0.,1.));
#1351=DIRECTION('',(0.,-1.,0.));
#1352=DIRECTION('',(0.,0.,-1.));
#1353=DIRECTION('',(-1.,0.,0.));
#1354=DIRECTION('',(0.,0.,-1.));
#1355=DIRECTION('',(-1.,0.,0.));
#1356=DIRECTION('',(2.44921270764476E-16,-1.,0.));
#1357=DIRECTION('',(-1.,-2.44921270764476E-16,0.));
#1358=DIRECTION('',(0.,0.,-1.));
#1359=DIRECTION('',(-1.,0.,0.));
#1360=DIRECTION('',(0.,0.,1.));
#1361=DIRECTION('',(1.,0.,0.));
#1362=DIRECTION('',(0.577350195676386,0.577350195676387,-0.577350416216076));
#1363=DIRECTION('',(-0.408248394427263,-0.408248394427263,-0.816496476964307));
#1364=DIRECTION('',(-0.577350195676386,-0.577350195676387,0.577350416216076));
#1365=DIRECTION('',(0.408248394427263,0.408248394427263,0.816496476964307));
#1366=DIRECTION('',(0.,-1.,0.));
#1367=DIRECTION('',(0.707106646134117,0.,-0.707106916238953));
#1368=DIRECTION('',(-0.577350195676386,-0.577350195676387,0.577350416216076));
#1369=DIRECTION('',(0.408248394427263,0.408248394427263,0.816496476964307));
#1370=DIRECTION('',(-0.627963059466095,-0.627963059466096,-0.459700763423297));
#1371=DIRECTION('',(0.325057527133246,0.325057527133247,-0.888073875366255));
#1372=DIRECTION('',(0.577350195676386,-0.577350195676387,-0.577350416216076));
#1373=DIRECTION('',(-0.408248394427263,0.408248394427263,-0.816496476964307));
#1374=DIRECTION('',(-0.577350195676386,0.577350195676387,0.577350416216076));
#1375=DIRECTION('',(0.408248394427263,-0.408248394427263,0.816496476964307));
#1376=DIRECTION('',(-0.577350195676386,0.577350195676387,0.577350416216076));
#1377=DIRECTION('',(0.408248394427263,-0.408248394427263,0.816496476964307));
#1378=DIRECTION('',(-0.627963059466095,0.627963059466096,-0.459700763423297));
#1379=DIRECTION('',(0.325057527133246,-0.325057527133247,-0.888073875366255));
#1380=DIRECTION('',(-0.816496632909431,0.408248160509606,-0.408248316454685));
#1381=DIRECTION('',(-0.447213595499931,0.,0.894427190999929));
#1382=DIRECTION('',(-3.20493740255882E-17,0.707106916238952,0.707106646134117));
#1383=DIRECTION('',(0.577350195676386,0.577350195676387,-0.577350416216075));
#1384=DIRECTION('',(-3.20493740255882E-17,0.707106916238952,0.707106646134117));
#1385=DIRECTION('',(0.577350195676386,0.577350195676387,-0.577350416216075));
#1386=DIRECTION('',(-0.577350195676386,-0.577350195676387,0.577350416216076));
#1387=DIRECTION('',(0.816496632909431,-0.408248160509606,0.408248316454685));
#1388=DIRECTION('',(-0.816496632909431,0.408248160509606,-0.408248316454686));
#1389=DIRECTION('',(-6.40987480511764E-17,0.707106916238952,0.707106646134117));
#1390=DIRECTION('',(-0.816496632909431,0.408248160509606,-0.408248316454686));
#1391=DIRECTION('',(-0.577350195676386,-0.577350195676387,0.577350416216076));
#1392=DIRECTION('',(0.816496632909431,-0.408248160509606,0.408248316454685));
#1393=DIRECTION('',(-0.816496632909431,0.408248160509606,-0.408248316454686));
#1394=DIRECTION('',(-0.816496632909431,0.408248160509606,-0.408248316454686));
#1395=DIRECTION('',(-6.40987480511764E-17,0.707106916238952,0.707106646134117));
#1396=DIRECTION('',(-0.707106916238948,-2.27118694264167E-15,-0.707106646134121));
#1397=DIRECTION('',(-0.707106646134121,0.,0.707106916238948));
#1398=DIRECTION('',(0.577350195676386,-0.577350195676387,-0.577350416216075));
#1399=DIRECTION('',(-2.13006465742194E-15,1.,-1.72695628540044E-15));
#1400=DIRECTION('',(-7.82394449526932E-16,1.,-2.42954924203662E-15));
#1401=DIRECTION('',(0.447213595499932,-5.92042785237398E-16,-0.894427190999929));
#1402=DIRECTION('',(0.894427190999929,2.96021392618677E-16,0.447213595499932));
#1403=DIRECTION('',(0.816496632909431,0.408248160509606,0.408248316454685));
#1404=DIRECTION('',(-4.41282637793044E-16,-1.,4.4128263779305E-16));
#1405=DIRECTION('',(0.447213595499932,-1.82315746907869E-15,-0.894427190999929));
#1406=DIRECTION('',(0.894427190999929,9.11578734539279E-16,0.447213595499932));
#1407=DIRECTION('',(0.816496632909431,0.408248160509606,0.408248316454685));
#1408=DIRECTION('',(-4.80742795206315E-16,-1.,1.79798061967005E-15));
#1409=DIRECTION('',(0.,0.,1.));
#1410=DIRECTION('',(1.,0.,0.));
#1411=DIRECTION('',(0.,0.,1.));
#1412=DIRECTION('',(1.,0.,0.));
#1413=DIRECTION('',(0.949770653356089,0.312946810214688,0.));
#1414=DIRECTION('',(0.64799502585427,-0.761644567018057,-9.05617429596341E-17));
#1415=DIRECTION('',(-0.64799502585427,-0.761644567018057,0.));
#1416=DIRECTION('',(-0.949770653356089,0.312946810214689,0.));
#1417=DIRECTION('',(0.,0.,1.));
#1418=DIRECTION('',(1.,0.,0.));
#1419=DIRECTION('',(0.949770653356089,0.312946810214688,0.));
#1420=DIRECTION('',(0.949770653356089,-0.312946810214689,0.));
#1421=DIRECTION('',(0.64799502585427,0.761644567018057,0.));
#1422=DIRECTION('',(0.64799502585427,-0.761644567018057,0.));
#1423=DIRECTION('',(0.639180907485744,-0.543804901403518,0.543805109129375));
#1424=DIRECTION('',(0.414185982238419,0.839211671278176,0.352382949229509));
#1425=DIRECTION('',(-0.647995169444108,0.,0.761644444854095));
#1426=DIRECTION('',(-0.166877860463424,-0.7883321508513,-0.592185950205941));
#1427=DIRECTION('',(-0.65789442306374,-0.020447356408812,0.752832540288689));
#1428=DIRECTION('',(2.51923153430076E-17,-0.707106916238952,-0.707106646134117));
#1429=DIRECTION('',(0.303412368213571,0.530404271481027,-0.79158843069471));
#1430=DIRECTION('',(0.,0.830750554464977,0.556644874454201));
#1431=DIRECTION('',(-0.933757890430682,0.,-0.357905297611591));
#1432=DIRECTION('',(-0.166877860463423,-0.788332150851301,-0.592185950205941));
#1433=DIRECTION('',(-0.945008280301813,0.27392523931831,-0.178673762554598));
#1434=DIRECTION('',(-0.639180907485743,0.543804901403518,-0.543805109129376));
#1435=DIRECTION('',(-0.414185982238418,-0.839211671278177,-0.35238294922951));
#1436=DIRECTION('',(-0.657894423063741,-0.0204473564088113,0.752832540288688));
#1437=DIRECTION('',(2.51923153430076E-17,-0.707106916238953,-0.707106646134117));
#1438=DIRECTION('',(-0.284296307342908,-0.417994752545796,0.862818634752035));
#1439=DIRECTION('',(0.,-0.899953914453758,-0.43598503627918));
#1440=DIRECTION('',(0.668410280852238,0.558760426506374,0.490932258281575));
#1441=DIRECTION('',(0.949770653356088,1.19541277303241E-7,0.312946810214668));
#1442=DIRECTION('',(0.949770653356088,1.19541277913507E-7,0.312946810214668));
#1443=DIRECTION('',(-0.00694692031276746,0.999753593081457,0.0210830125666483));
#1444=DIRECTION('',(-0.999975869857952,-0.00694537613645257,-0.000146465542487926));
#1445=DIRECTION('',(-0.0815063546285051,0.0204472633453825,-0.996463056804846));
#1446=DIRECTION('',(-0.949770653356088,-1.19541277855551E-7,-0.312946810214668));
#1447=DIRECTION('',(-0.00694692031276732,0.999753593081457,0.0210830125666459));
#1448=DIRECTION('',(-0.999975869857952,-0.00694537613645243,-0.000146465542487906));
#1449=DIRECTION('',(0.949770653356088,1.19541278245964E-7,0.312946810214668));
#1450=DIRECTION('',(-0.0815063546285071,0.0204472633453802,-0.996463056804845));
#1451=DIRECTION('',(0.881104316455432,-0.45281139033155,-0.136444231499961));
#1452=DIRECTION('',(-0.871620355322778,0.449236657670261,0.196123383593713));
#1453=DIRECTION('',(0.454685145248121,0.890451277021661,-0.0189193536144355));
#1454=DIRECTION('',(-0.89065224340968,0.454582550288077,-0.0096584824322093));
#1455=DIRECTION('',(-0.454685145248122,-0.89045127702166,0.0189193536144387));
#1456=DIRECTION('',(0.890652243409679,-0.454582550288078,0.00965848243221096));
#1457=DIRECTION('',(0.639180907485744,0.543804901403518,0.543805109129375));
#1458=DIRECTION('',(0.414185982238419,-0.839211671278176,0.352382949229509));
#1459=DIRECTION('',(-0.166877860463424,0.7883321508513,-0.592185950205941));
#1460=DIRECTION('',(0.,-0.707106916238952,0.707106646134117));
#1461=DIRECTION('',(-0.65789442306374,0.020447356408812,0.752832540288689));
#1462=DIRECTION('',(-0.226912203982739,0.688661923357864,0.688662186417074));
#1463=DIRECTION('',(0.973915217913601,0.160451127525135,0.160451188815218));
#1464=DIRECTION('',(-1.13500349519012E-15,-0.707106916238953,0.707106646134116));
#1465=DIRECTION('',(0.949770653356088,-1.19541278245964E-7,0.312946810214668));
#1466=DIRECTION('',(3.66444804850385E-16,0.707106916238952,-0.707106646134117));
#1467=DIRECTION('',(0.226912203982739,-0.688661923357864,-0.688662186417073));
#1468=DIRECTION('',(-0.973915217913601,-0.160451127525135,-0.160451188815218));
#1469=DIRECTION('',(-0.949770653356088,1.19541277855551E-7,-0.312946810214668));
#1470=DIRECTION('',(3.66444804850385E-16,0.707106916238952,-0.707106646134117));
#1471=DIRECTION('',(-0.639180907485743,-0.543804901403518,-0.543805109129376));
#1472=DIRECTION('',(-0.414185982238418,0.839211671278177,-0.35238294922951));
#1473=DIRECTION('',(-0.657894423063741,0.0204473564088113,0.752832540288688));
#1474=DIRECTION('',(-0.166877860463423,0.788332150851301,-0.592185950205941));
#1475=DIRECTION('',(0.303412368213571,-0.530404271481027,-0.79158843069471));
#1476=DIRECTION('',(0.,-0.830750554464977,0.556644874454201));
#1477=DIRECTION('',(-0.945008280301813,-0.27392523931831,-0.178673762554598));
#1478=DIRECTION('',(-0.00694692031276732,-0.999753593081457,0.0210830125666459));
#1479=DIRECTION('',(-0.999975869857952,0.00694537613645243,-0.000146465542487906));
#1480=DIRECTION('',(0.949770653356088,-1.19541277913507E-7,0.312946810214668));
#1481=DIRECTION('',(-0.0815063546285071,-0.0204472633453802,-0.996463056804845));
#1482=DIRECTION('',(-0.00694692031276746,-0.999753593081457,0.0210830125666483));
#1483=DIRECTION('',(-0.999975869857952,0.00694537613645257,-0.000146465542487926));
#1484=DIRECTION('',(-0.0815063546285051,-0.0204472633453825,-0.996463056804846));
#1485=DIRECTION('',(0.949770653356088,-1.19541277303241E-7,0.312946810214668));
#1486=DIRECTION('',(-0.284296307342908,0.417994752545796,0.862818634752035));
#1487=DIRECTION('',(0.,0.899953914453758,-0.43598503627918));
#1488=DIRECTION('',(0.668410280852238,-0.558760426506374,0.490932258281575));
#1489=DIRECTION('',(-0.454685145248122,0.89045127702166,0.0189193536144387));
#1490=DIRECTION('',(0.890652243409679,0.454582550288078,0.00965848243221096));
#1491=DIRECTION('',(-0.871620355322778,-0.449236657670261,0.196123383593713));
#1492=DIRECTION('',(0.816496632909431,0.408248160509606,0.408248316454685));
#1493=DIRECTION('',(0.454685145248121,-0.890451277021661,-0.0189193536144355));
#1494=DIRECTION('',(-0.89065224340968,-0.454582550288077,-0.0096584824322093));
#1495=DIRECTION('',(0.816496632909431,0.408248160509606,0.408248316454685));
#1496=DIRECTION('',(0.881104316455432,0.45281139033155,-0.136444231499961));
#1497=DIRECTION('',(0.577350195676386,-0.577350195676387,-0.577350416216075));
#1498=DIRECTION('',(0.226912203982739,0.688661923357864,-0.688662186417073));
#1499=DIRECTION('',(-0.973915217913601,0.160451127525135,-0.160451188815218));
#1500=DIRECTION('',(-0.226912203982739,-0.688661923357864,0.688662186417074));
#1501=DIRECTION('',(0.973915217913601,-0.160451127525135,0.160451188815218));
#1502=DIRECTION('',(-0.816496632909431,-0.408248160509606,-0.408248316454686));
#1503=DIRECTION('',(-0.447213595499932,0.,0.894427190999929));
#1504=DIRECTION('',(2.31296463463574E-16,0.707106916238952,-0.707106646134117));
#1505=DIRECTION('',(2.31296463463574E-16,0.707106916238952,-0.707106646134117));
#1506=DIRECTION('',(-0.577350195676386,0.577350195676387,0.577350416216076));
#1507=DIRECTION('',(-0.816496632909431,-0.408248160509606,-0.408248316454685));
#1508=DIRECTION('',(-0.577350195676386,0.577350195676387,0.577350416216076));
#1509=DIRECTION('',(-0.816496632909431,-0.408248160509606,-0.408248316454685));
#1510=DIRECTION('',(0.,0.,-1.));
#1511=DIRECTION('',(-1.,0.,0.));
#1512=DIRECTION('',(0.,0.,1.));
#1513=DIRECTION('',(1.,0.,0.));
#1514=DIRECTION('',(0.,0.,1.));
#1515=DIRECTION('',(1.,0.,0.));
#1516=CARTESIAN_POINT('',(0.,0.,0.));
#1517=CARTESIAN_POINT('',(118.461,-2.34853803071644E-14,4.59242549680257E-16));
#1518=CARTESIAN_POINT('',(17.5,-3.46944695195361E-15,4.59242549680257E-16));
#1519=CARTESIAN_POINT('',(17.5,7.5,4.59242549680257E-16));
#1520=CARTESIAN_POINT('',(118.461,-2.2151031009443E-14,2.29621274840129E-16));
#1521=CARTESIAN_POINT('',(108.215808644593,-2.7972416050126E-14,7.5));
#1522=CARTESIAN_POINT('',(118.461,-5.30330187179216,-5.30329984600586));
#1523=CARTESIAN_POINT('',(118.461,-2.56204779613966E-14,3.69906822679374E-15));
#1524=CARTESIAN_POINT('',(118.461,5.30330187179214,-5.30329984600588));
#1525=CARTESIAN_POINT('',(118.461,-2.34853803071644E-14,4.59242549680257E-16));
#1526=CARTESIAN_POINT('',(-3.46944695195361E-15,-19.,16.));
#1527=CARTESIAN_POINT('',(-3.46944695195361E-15,-19.,16.));
#1528=CARTESIAN_POINT('',(-17.5,-19.,16.));
#1529=CARTESIAN_POINT('',(17.5,-19.,16.));
#1530=CARTESIAN_POINT('',(-17.5,-19.,15.375));
#1531=CARTESIAN_POINT('',(-17.5,-19.,14.75));
#1532=CARTESIAN_POINT('',(-3.46944695195361E-15,-19.,14.75));
#1533=CARTESIAN_POINT('',(17.5,-19.,14.75));
#1534=CARTESIAN_POINT('',(17.5,-19.,15.375));
#1535=CARTESIAN_POINT('',(0.,0.,16.));
#1536=CARTESIAN_POINT('',(0.,1.53080849893419E-16,16.));
#1537=CARTESIAN_POINT('',(2.5,1.53080849893419E-16,16.));
#1538=CARTESIAN_POINT('',(3.46944695195361E-15,19.,16.));
#1539=CARTESIAN_POINT('',(-17.5,19.,16.));
#1540=CARTESIAN_POINT('',(17.5,19.,16.));
#1541=CARTESIAN_POINT('',(-17.5,43.5559830844476,16.));
#1542=CARTESIAN_POINT('',(17.5,43.5559830844476,16.));
#1543=CARTESIAN_POINT('',(-3.46944695195361E-15,-19.,-16.));
#1544=CARTESIAN_POINT('',(17.5,-19.,15.375));
#1545=CARTESIAN_POINT('',(17.5,-19.,-14.75));
#1546=CARTESIAN_POINT('',(17.5,-19.,-16.));
#1547=CARTESIAN_POINT('',(-3.46944695195361E-15,-19.,-14.75));
#1548=CARTESIAN_POINT('',(13.68,-19.,-14.75));
#1549=CARTESIAN_POINT('',(13.68,-19.,-15.375));
#1550=CARTESIAN_POINT('',(13.68,-19.,-16.));
#1551=CARTESIAN_POINT('',(-3.46944695195361E-15,-19.,-16.));
#1552=CARTESIAN_POINT('',(0.,0.,-16.));
#1553=CARTESIAN_POINT('',(3.46944695195361E-15,19.,-16.));
#1554=CARTESIAN_POINT('',(13.68,19.,-16.));
#1555=CARTESIAN_POINT('',(17.5,19.,-16.));
#1556=CARTESIAN_POINT('',(17.5,43.5559830844476,-16.));
#1557=CARTESIAN_POINT('',(13.68,43.5559830844476,-16.));
#1558=CARTESIAN_POINT('',(0.,0.,-14.75));
#1559=CARTESIAN_POINT('',(-17.5,0.,-14.75));
#1560=CARTESIAN_POINT('',(-17.5,-19.,-14.75));
#1561=CARTESIAN_POINT('',(-17.5,-17.5,-14.75));
#1562=CARTESIAN_POINT('',(-3.46944695195361E-15,-19.,-14.75));
#1563=CARTESIAN_POINT('',(-13.68,-19.,-14.75));
#1564=CARTESIAN_POINT('',(-13.68,43.5559830844476,-14.75));
#1565=CARTESIAN_POINT('',(-13.68,-17.5,-14.75));
#1566=CARTESIAN_POINT('',(-3.46944695195361E-15,-17.5,-14.75));
#1567=CARTESIAN_POINT('',(0.,0.,-14.75));
#1568=CARTESIAN_POINT('',(-17.5,0.,-14.75));
#1569=CARTESIAN_POINT('',(-17.5,17.5,-14.75));
#1570=CARTESIAN_POINT('',(-17.5,19.,-14.75));
#1571=CARTESIAN_POINT('',(3.46944695195361E-15,17.5,-14.75));
#1572=CARTESIAN_POINT('',(-13.68,17.5,-14.75));
#1573=CARTESIAN_POINT('',(-13.68,43.5559830844476,-14.75));
#1574=CARTESIAN_POINT('',(-13.68,19.,-14.75));
#1575=CARTESIAN_POINT('',(3.46944695195361E-15,19.,-14.75));
#1576=CARTESIAN_POINT('',(3.46944695195361E-15,19.,16.));
#1577=CARTESIAN_POINT('',(3.46944695195361E-15,19.,14.75));
#1578=CARTESIAN_POINT('',(-17.5,19.,14.75));
#1579=CARTESIAN_POINT('',(17.5,19.,14.75));
#1580=CARTESIAN_POINT('',(-17.5,19.,16.));
#1581=CARTESIAN_POINT('',(17.5,19.,16.));
#1582=CARTESIAN_POINT('',(0.,0.,14.75));
#1583=CARTESIAN_POINT('',(-17.5,0.,14.75));
#1584=CARTESIAN_POINT('',(-17.5,17.5,14.75));
#1585=CARTESIAN_POINT('',(17.5,0.,14.75));
#1586=CARTESIAN_POINT('',(17.5,17.5,14.75));
#1587=CARTESIAN_POINT('',(3.46944695195361E-15,17.5,14.75));
#1588=CARTESIAN_POINT('',(0.,0.,14.75));
#1589=CARTESIAN_POINT('',(-17.5,0.,14.75));
#1590=CARTESIAN_POINT('',(-17.5,-17.5,14.75));
#1591=CARTESIAN_POINT('',(-3.46944695195361E-15,-17.5,14.75));
#1592=CARTESIAN_POINT('',(17.5,-17.5,14.75));
#1593=CARTESIAN_POINT('',(17.5,0.,14.75));
#1594=CARTESIAN_POINT('',(3.46944695195361E-15,19.,-16.));
#1595=CARTESIAN_POINT('',(3.46944695195361E-15,19.,-16.));
#1596=CARTESIAN_POINT('',(-17.5,19.,-16.));
#1597=CARTESIAN_POINT('',(-13.68,19.,-16.));
#1598=CARTESIAN_POINT('',(-17.5,19.,-16.));
#1599=CARTESIAN_POINT('',(-13.68,19.,-16.));
#1600=CARTESIAN_POINT('',(0.,0.,-14.75));
#1601=CARTESIAN_POINT('',(17.5,0.,-14.75));
#1602=CARTESIAN_POINT('',(17.5,-17.5,-14.75));
#1603=CARTESIAN_POINT('',(-3.46944695195361E-15,-17.5,-14.75));
#1604=CARTESIAN_POINT('',(13.68,-17.5,-14.75));
#1605=CARTESIAN_POINT('',(13.68,43.5559830844476,-14.75));
#1606=CARTESIAN_POINT('',(-3.46944695195361E-15,-19.,-16.));
#1607=CARTESIAN_POINT('',(-17.5,-19.,15.375));
#1608=CARTESIAN_POINT('',(-17.5,-19.,-16.));
#1609=CARTESIAN_POINT('',(-3.46944695195361E-15,-19.,-16.));
#1610=CARTESIAN_POINT('',(-13.68,-19.,-16.));
#1611=CARTESIAN_POINT('',(-13.68,-19.,-15.375));
#1612=CARTESIAN_POINT('',(0.,0.,-16.));
#1613=CARTESIAN_POINT('',(-17.5,43.5559830844476,-16.));
#1614=CARTESIAN_POINT('',(-13.68,43.5559830844476,-16.));
#1615=CARTESIAN_POINT('',(3.46944695195361E-15,19.,-16.));
#1616=CARTESIAN_POINT('',(17.5,19.,-16.));
#1617=CARTESIAN_POINT('',(17.5,19.,-14.75));
#1618=CARTESIAN_POINT('',(13.68,19.,-16.));
#1619=CARTESIAN_POINT('',(13.68,19.,-14.75));
#1620=CARTESIAN_POINT('',(3.46944695195361E-15,19.,-14.75));
#1621=CARTESIAN_POINT('',(3.46944695195361E-15,17.5,14.75));
#1622=CARTESIAN_POINT('',(3.46944695195361E-15,17.5,0.));
#1623=CARTESIAN_POINT('',(-13.68,17.5,0.));
#1624=CARTESIAN_POINT('',(13.68,17.5,0.));
#1625=CARTESIAN_POINT('',(-13.68,17.5,14.75));
#1626=CARTESIAN_POINT('',(-17.5,17.5,14.75));
#1627=CARTESIAN_POINT('',(17.5,17.5,14.75));
#1628=CARTESIAN_POINT('',(17.5,17.5,-14.75));
#1629=CARTESIAN_POINT('',(3.46944695195361E-15,17.5,-14.75));
#1630=CARTESIAN_POINT('',(13.68,17.5,-14.75));
#1631=CARTESIAN_POINT('',(13.68,17.5,14.75));
#1632=CARTESIAN_POINT('',(17.5,0.,14.75));
#1633=CARTESIAN_POINT('',(17.5,-17.5,14.75));
#1634=CARTESIAN_POINT('',(17.5,0.,-14.75));
#1635=CARTESIAN_POINT('',(-3.46944695195361E-15,-17.5,14.75));
#1636=CARTESIAN_POINT('',(-13.68,-17.5,14.75));
#1637=CARTESIAN_POINT('',(-13.68,-17.5,0.));
#1638=CARTESIAN_POINT('',(-3.46944695195361E-15,-17.5,0.));
#1639=CARTESIAN_POINT('',(13.68,-17.5,0.));
#1640=CARTESIAN_POINT('',(13.68,-17.5,14.75));
#1641=CARTESIAN_POINT('',(-17.5,-17.5,14.75));
#1642=CARTESIAN_POINT('',(-17.5,0.,14.75));
#1643=CARTESIAN_POINT('',(0.,0.,-14.75));
#1644=CARTESIAN_POINT('',(13.68,43.5559830844476,-14.75));
#1645=CARTESIAN_POINT('',(-13.68,45.0559830844476,-8.));
#1646=CARTESIAN_POINT('',(-13.68,45.0559830844476,0.));
#1647=CARTESIAN_POINT('',(13.68,45.0559830844476,-8.));
#1648=CARTESIAN_POINT('',(13.68,45.0559830844476,0.));
#1649=CARTESIAN_POINT('',(-6.84,45.0559830844476,0.));
#1650=CARTESIAN_POINT('',(-7.76426070659422E-16,0.,0.));
#1651=CARTESIAN_POINT('',(-12.68,0.,0.));
#1652=CARTESIAN_POINT('',(-7.76426070659422E-16,0.,0.));
#1653=CARTESIAN_POINT('',(0.,1.53080849893419E-16,12.4311061454723));
#1654=CARTESIAN_POINT('',(-2.5,1.53080849893419E-16,12.4311061454723));
#1655=CARTESIAN_POINT('',(0.,1.53080849893419E-16,-44.780058416954));
#1656=CARTESIAN_POINT('',(78.046486302653,-40.4145136973472,40.4145291351253));
#1657=CARTESIAN_POINT('',(78.046486302653,-40.4145136973472,40.4145291351253));
#1658=CARTESIAN_POINT('',(81.1083492608575,-37.3526507391427,46.5382527123576));
#1659=CARTESIAN_POINT('',(118.461,-2.77555756156289E-14,0.));
#1660=CARTESIAN_POINT('',(110.961,-2.77555756156289E-14,10.2451927878548));
#1661=CARTESIAN_POINT('',(118.461,-2.77555756156289E-14,0.));
#1662=CARTESIAN_POINT('',(123.764300858899,-5.30330085889912,0.));
#1663=CARTESIAN_POINT('',(118.461,-2.53908566865565E-14,1.04083408558608E-14));
#1664=CARTESIAN_POINT('',(78.046486302653,40.4145136973471,40.4145291351253));
#1665=CARTESIAN_POINT('',(78.046486302653,40.4145136973471,40.4145291351253));
#1666=CARTESIAN_POINT('',(81.1083492608575,37.3526507391426,46.5382527123576));
#1667=CARTESIAN_POINT('',(118.461,-2.77555756156289E-14,0.));
#1668=CARTESIAN_POINT('',(123.764300858899,5.30330085889908,0.));
#1669=CARTESIAN_POINT('',(118.461,-2.19214097346029E-14,1.38777878078145E-14));
#1670=CARTESIAN_POINT('',(51.8195367283409,-29.8991194690881,29.899130890133));
#1671=CARTESIAN_POINT('',(53.55158731537,-28.167068882059,28.1670796414847));
#1672=CARTESIAN_POINT('',(53.55158731537,-49.3802763692275,6.95388025746124));
#1673=CARTESIAN_POINT('',(53.5515873153701,-6.95386139489042,49.3802790255083));
#1674=CARTESIAN_POINT('',(51.8195367283409,-51.1123269562567,8.68593150610946));
#1675=CARTESIAN_POINT('',(51.8195367283409,-51.1123269562567,8.68593150610946));
#1676=CARTESIAN_POINT('',(51.8195367283409,-29.8991194690881,29.899130890133));
#1677=CARTESIAN_POINT('',(51.8195367283409,-8.68591198191958,51.1123302741565));
#1678=CARTESIAN_POINT('',(51.8195367283409,-8.68591198191958,51.1123302741565));
#1679=CARTESIAN_POINT('',(76.3144357156238,-42.1465642843763,42.1465803837736));
#1680=CARTESIAN_POINT('',(76.3144357156238,-63.3597717715449,20.93338099975));
#1681=CARTESIAN_POINT('',(100.809334702907,-75.6072165868331,33.1808304933906));
#1682=CARTESIAN_POINT('',(100.809334702907,-54.3940090996645,54.3940298774141));
#1683=CARTESIAN_POINT('',(100.809334702907,-33.1808016124959,75.6072292614376));
#1684=CARTESIAN_POINT('',(76.3144357156238,-20.9333567972077,63.359779767797));
#1685=CARTESIAN_POINT('',(78.046486302653,-40.4145136973472,40.4145291351253));
#1686=CARTESIAN_POINT('',(78.046486302653,-61.6277211845157,19.2013297511018));
#1687=CARTESIAN_POINT('',(102.541385289936,-73.8751659998039,31.4487792447423));
#1688=CARTESIAN_POINT('',(78.046486302653,-19.2013062101786,61.6277285191488));
#1689=CARTESIAN_POINT('',(102.541385289936,-31.4487510254667,73.8751780127894));
#1690=CARTESIAN_POINT('',(102.541385289936,-52.6619585126353,52.6619786287659));
#1691=CARTESIAN_POINT('',(51.4659433984133,1.65305664465756E-13,51.4659237391518));
#1692=CARTESIAN_POINT('',(51.8195367283409,8.68591198191955,51.1123302741565));
#1693=CARTESIAN_POINT('',(51.8195367283409,8.68591198191955,51.1123302741565));
#1694=CARTESIAN_POINT('',(53.55158731537,6.95386139489039,49.3802790255082));
#1695=CARTESIAN_POINT('',(53.5515873153701,-1.21430643318376E-14,49.3802790255082));
#1696=CARTESIAN_POINT('',(51.8195367283409,-1.21430643318376E-14,51.1123302741565));
#1697=CARTESIAN_POINT('',(78.046486302653,-8.40493520258605E-16,61.6277285191488));
#1698=CARTESIAN_POINT('',(78.046486302653,19.2013062101786,61.6277285191488));
#1699=CARTESIAN_POINT('',(102.541385289936,31.4487510254667,73.8751780127893));
#1700=CARTESIAN_POINT('',(102.541385289936,-4.10812207333604E-30,73.8751780127893));
#1701=CARTESIAN_POINT('',(76.3144357156238,4.2494446333436E-15,63.359779767797));
#1702=CARTESIAN_POINT('',(76.3144357156238,20.9333567972077,63.359779767797));
#1703=CARTESIAN_POINT('',(100.809334702907,33.1808016124959,75.6072292614376));
#1704=CARTESIAN_POINT('',(100.809334702907,0.,75.6072292614376));
#1705=CARTESIAN_POINT('',(139.244598545657,0.,73.8751780127894));
#1706=CARTESIAN_POINT('',(118.461,-2.30261377574841E-14,73.8751780127894));
#1707=CARTESIAN_POINT('',(125.961,-2.30261377574841E-14,73.8751780127894));
#1708=CARTESIAN_POINT('',(119.388092025111,36.9996944208706,73.8751780127894));
#1709=CARTESIAN_POINT('',(135.161308014606,42.196925576937,73.8751780127894));
#1710=CARTESIAN_POINT('',(153.455148849206,20.6945931119668,73.8751780127894));
#1711=CARTESIAN_POINT('',(171.061777950669,-1.12757025938492E-13,73.8751780127894));
#1712=CARTESIAN_POINT('',(153.455148849205,-20.6945931119668,73.8751780127894));
#1713=CARTESIAN_POINT('',(135.161308014606,-42.196925576937,73.8751780127894));
#1714=CARTESIAN_POINT('',(118.851346652271,-36.8228383012019,73.8751780127894));
#1715=CARTESIAN_POINT('',(141.035644244654,0.,75.6072292614376));
#1716=CARTESIAN_POINT('',(119.804747770028,39.4397378167897,75.6072292614376));
#1717=CARTESIAN_POINT('',(138.80016083715,45.6986740210834,75.6072292614376));
#1718=CARTESIAN_POINT('',(119.804747770028,-39.4397378167897,75.6072292614376));
#1719=CARTESIAN_POINT('',(138.80016083715,-45.6986740210834,75.6072292614376));
#1720=CARTESIAN_POINT('',(158.240011612779,-22.8493370105417,75.6072292614376));
#1721=CARTESIAN_POINT('',(177.679862388406,-5.07943955871782E-14,75.6072292614376));
#1722=CARTESIAN_POINT('',(158.240011612779,22.8493370105417,75.6072292614376));
#1723=CARTESIAN_POINT('',(157.614822085276,-40.0726947845066,49.6078620906821));
#1724=CARTESIAN_POINT('',(177.392369298105,6.93889390390723E-15,66.4342896238351));
#1725=CARTESIAN_POINT('',(171.578003615438,1.04083408558608E-14,73.2684135978654));
#1726=CARTESIAN_POINT('',(163.913180709832,-36.2086756762719,46.0688772249079));
#1727=CARTESIAN_POINT('',(156.07737173586,-73.2250907055471,18.2625764370264));
#1728=CARTESIAN_POINT('',(145.619339875233,-73.5501262998498,30.2297651166192));
#1729=CARTESIAN_POINT('',(135.161308014606,-73.8751618941525,42.1969537962119));
#1730=CARTESIAN_POINT('',(135.161308014606,-58.0360437355447,58.0360659045006));
#1731=CARTESIAN_POINT('',(-1.80212993667238,-3.15035745511216,4.70167124984932));
#1732=CARTESIAN_POINT('',(-2.50758575529448,0.,6.5421719112938));
#1733=CARTESIAN_POINT('',(169.753164016394,-37.4457771654368,47.4783966266554));
#1734=CARTESIAN_POINT('',(161.826465644381,-74.8915543308736,19.3495639918733));
#1735=CARTESIAN_POINT('',(161.826465644381,-74.8915543308736,19.3495639918733));
#1736=CARTESIAN_POINT('',(162.819358143212,-41.6996407486104,51.3744329609056));
#1737=CARTESIAN_POINT('',(150.313313240766,-75.2493830680278,32.5241334469253));
#1738=CARTESIAN_POINT('',(138.80016083715,-75.6072118051819,45.6987029019773));
#1739=CARTESIAN_POINT('',(138.80016083715,-53.175808467108,68.1300976715725));
#1740=CARTESIAN_POINT('',(-0.566538429945131,-0.832969281401769,1.71940296808084));
#1741=CARTESIAN_POINT('',(97.956612290909,-74.8915623697447,-1.69537649477906));
#1742=CARTESIAN_POINT('',(97.956612290909,-74.8915623697447,-1.69537649477906));
#1743=CARTESIAN_POINT('',(99.950100051253,-73.2250977699113,-0.231204748655562));
#1744=CARTESIAN_POINT('',(128.013735893556,-73.2250942377292,9.0156858441854));
#1745=CARTESIAN_POINT('',(129.891538967645,-74.8915583503092,8.82709374854709));
#1746=CARTESIAN_POINT('',(128.013231202331,-73.4774966190759,20.9844061969452));
#1747=CARTESIAN_POINT('',(101.245742670594,-73.5501318848576,15.6087872480434));
#1748=CARTESIAN_POINT('',(118.851346652271,-73.8751639469782,36.8228665204771));
#1749=CARTESIAN_POINT('',(129.890983357654,-75.1694258422242,22.0033494086939));
#1750=CARTESIAN_POINT('',(119.804747770029,-75.6072141960075,39.439766697684));
#1751=CARTESIAN_POINT('',(99.3829734969079,-75.2493894782889,15.7427269993058));
#1752=CARTESIAN_POINT('',(97.9566122909091,-74.8915623697448,-1.69537649477907));
#1753=CARTESIAN_POINT('',(99.950100051253,-73.2250977699113,-0.231204748655566));
#1754=CARTESIAN_POINT('',(82.5775871033864,-66.9651505652488,1.7650595055171));
#1755=CARTESIAN_POINT('',(84.4839291392921,-65.2768239696834,2.16382358671669));
#1756=CARTESIAN_POINT('',(67.1985619158636,-59.0387387607527,5.22549550581329));
#1757=CARTESIAN_POINT('',(69.0177582273309,-57.3285501694554,4.55885192208898));
#1758=CARTESIAN_POINT('',(51.8195367283409,-51.1123269562567,8.68593150610946));
#1759=CARTESIAN_POINT('',(53.55158731537,-49.3802763692275,6.95388025746124));
#1760=CARTESIAN_POINT('',(76.7508436833115,-61.3026870695694,3.36133775440283));
#1761=CARTESIAN_POINT('',(74.888074509625,-63.0019446630007,3.49527750566519));
#1762=CARTESIAN_POINT('',(78.0155819980784,-61.6882438951463,15.6100731696807));
#1763=CARTESIAN_POINT('',(76.2697838981341,-63.4472174871585,15.7445849520747));
#1764=CARTESIAN_POINT('',(157.614822085276,40.0726947845066,49.6078620906821));
#1765=CARTESIAN_POINT('',(163.913180709832,36.2086756762719,46.0688772249079));
#1766=CARTESIAN_POINT('',(156.07737173586,73.2250907055471,18.2625764370264));
#1767=CARTESIAN_POINT('',(135.161308014606,58.0360437355448,58.0360659045007));
#1768=CARTESIAN_POINT('',(135.161308014606,73.8751618941525,42.1969537962119));
#1769=CARTESIAN_POINT('',(145.619339875233,73.5501262998498,30.2297651166192));
#1770=CARTESIAN_POINT('',(118.826690129286,57.3623424206868,57.3623643322982));
#1771=CARTESIAN_POINT('',(138.80016083715,60.6529429131327,60.6529660817075));
#1772=CARTESIAN_POINT('',(138.80016083715,75.6072118051819,45.6987029019773));
#1773=CARTESIAN_POINT('',(119.804747770029,75.6072141960075,39.439766697684));
#1774=CARTESIAN_POINT('',(100.809334702907,75.6072165868331,33.1808304933906));
#1775=CARTESIAN_POINT('',(100.809334702907,54.3940090996645,54.3940298774141));
#1776=CARTESIAN_POINT('',(118.011560632653,55.2106475885366,55.2106686782307));
#1777=CARTESIAN_POINT('',(118.851346652271,73.8751639469782,36.8228665204771));
#1778=CARTESIAN_POINT('',(102.541385289936,73.8751659998039,31.4487792447423));
#1779=CARTESIAN_POINT('',(102.541385289936,52.6619585126353,52.6619786287658));
#1780=CARTESIAN_POINT('',(162.819358143212,41.6996407486104,51.3744329609056));
#1781=CARTESIAN_POINT('',(150.313313240766,75.2493830680278,32.5241334469253));
#1782=CARTESIAN_POINT('',(161.826465644381,74.8915543308736,19.3495639918733));
#1783=CARTESIAN_POINT('',(169.753164016394,37.4457771654368,47.4783966266554));
#1784=CARTESIAN_POINT('',(-1.80212993667238,3.15035745511216,4.70167124984932));
#1785=CARTESIAN_POINT('',(161.826465644381,74.8915543308736,19.3495639918733));
#1786=CARTESIAN_POINT('',(129.890983357654,75.1694258422242,22.0033494086939));
#1787=CARTESIAN_POINT('',(129.891538967645,74.8915583503092,8.82709374854709));
#1788=CARTESIAN_POINT('',(97.956612290909,74.8915623697447,-1.69537649477906));
#1789=CARTESIAN_POINT('',(99.3829734969079,75.2493894782889,15.7427269993058));
#1790=CARTESIAN_POINT('',(128.013231202331,73.4774966190759,20.9844061969452));
#1791=CARTESIAN_POINT('',(101.245742670594,73.5501318848576,15.6087872480434));
#1792=CARTESIAN_POINT('',(99.950100051253,73.2250977699113,-0.231204748655562));
#1793=CARTESIAN_POINT('',(128.013735893556,73.2250942377292,9.0156858441854));
#1794=CARTESIAN_POINT('',(-0.566538429945131,0.832969281401769,1.71940296808084));
#1795=CARTESIAN_POINT('',(97.956612290909,74.8915623697447,-1.69537649477906));
#1796=CARTESIAN_POINT('',(76.2697838981341,63.4472174871585,15.7445849520747));
#1797=CARTESIAN_POINT('',(74.888074509625,63.0019446630007,3.49527750566519));
#1798=CARTESIAN_POINT('',(51.8195367283409,51.1123269562567,8.68593150610942));
#1799=CARTESIAN_POINT('',(76.3144357156238,63.3597717715449,20.93338099975));
#1800=CARTESIAN_POINT('',(78.0155819980784,61.6882438951463,15.6100731696807));
#1801=CARTESIAN_POINT('',(78.0464863026529,61.6277211845157,19.2013297511017));
#1802=CARTESIAN_POINT('',(53.55158731537,49.3802763692275,6.9538802574612));
#1803=CARTESIAN_POINT('',(76.7508436833115,61.3026870695694,3.36133775440283));
#1804=CARTESIAN_POINT('',(97.9566122909091,74.8915623697448,-1.69537649477907));
#1805=CARTESIAN_POINT('',(99.950100051253,73.2250977699113,-0.231204748655566));
#1806=CARTESIAN_POINT('',(82.5775871033864,66.9651505652488,1.7650595055171));
#1807=CARTESIAN_POINT('',(84.4839291392921,65.2768239696834,2.16382358671669));
#1808=CARTESIAN_POINT('',(67.1985619158636,59.0387387607527,5.22549550581329));
#1809=CARTESIAN_POINT('',(69.0177582273309,57.3285501694554,4.55885192208898));
#1810=CARTESIAN_POINT('',(51.8195367283409,51.1123269562567,8.68593150610946));
#1811=CARTESIAN_POINT('',(53.55158731537,49.3802763692275,6.95388025746124));
#1812=CARTESIAN_POINT('',(51.8195367283409,51.1123269562567,8.68593150610942));
#1813=CARTESIAN_POINT('',(118.011560632653,-55.2106475885366,55.2106686782307));
#1814=CARTESIAN_POINT('',(118.826690129286,-57.3623424206868,57.3623643322982));
#1815=CARTESIAN_POINT('',(51.8195367283409,29.8991194690881,29.8991308901329));
#1816=CARTESIAN_POINT('',(53.55158731537,28.1670688820589,28.1670796414847));
#1817=CARTESIAN_POINT('',(51.8195367283409,29.8991194690881,29.8991308901329));
#1818=CARTESIAN_POINT('',(76.3144357156238,42.1465642843763,42.1465803837735));
#1819=CARTESIAN_POINT('',(78.046486302653,40.4145136973472,40.4145291351253));
#1820=CARTESIAN_POINT('',(118.461,-2.30261377574841E-14,70.));
#1821=CARTESIAN_POINT('',(118.461,-2.30261377574841E-14,0.));
#1822=CARTESIAN_POINT('',(118.461,0.,0.));
#1823=MECHANICAL_DESIGN_GEOMETRIC_PRESENTATION_REPRESENTATION('',(#1081,
#14,#15,#16,#17,#18,#19,#20,#21,#22,#23,#24),#1824);
#1824=(
GEOMETRIC_REPRESENTATION_CONTEXT(3)
GLOBAL_UNCERTAINTY_ASSIGNED_CONTEXT((#1825))
GLOBAL_UNIT_ASSIGNED_CONTEXT((#1828,#1827,#1826))
REPRESENTATION_CONTEXT('Part 1','TOP_LEVEL_ASSEMBLY_PART')
);
#1825=UNCERTAINTY_MEASURE_WITH_UNIT(LENGTH_MEASURE(1.E-5),#1828,
'DISTANCE_ACCURACY_VALUE','Maximum Tolerance applied to model');
#1826=(
NAMED_UNIT(*)
SI_UNIT($,.STERADIAN.)
SOLID_ANGLE_UNIT()
);
#1827=(
NAMED_UNIT(*)
PLANE_ANGLE_UNIT()
SI_UNIT($,.RADIAN.)
);
#1828=(
LENGTH_UNIT()
NAMED_UNIT(*)
SI_UNIT(.MILLI.,.METRE.)
);
#1829=PRODUCT_DEFINITION_SHAPE('','',#1830);
#1830=PRODUCT_DEFINITION('','',#1832,#1831);
#1831=PRODUCT_DEFINITION_CONTEXT('',#1838,'design');
#1832=PRODUCT_DEFINITION_FORMATION_WITH_SPECIFIED_SOURCE('','',#1834,
 .NOT_KNOWN.);
#1833=PRODUCT_RELATED_PRODUCT_CATEGORY('','',(#1834));
#1834=PRODUCT('Part 1','Part 1','Part 1',(#1836));
#1835=PRODUCT_CATEGORY('','');
#1836=PRODUCT_CONTEXT('',#1838,'mechanical');
#1837=APPLICATION_PROTOCOL_DEFINITION('international standard',
'ap242_managed_model_based_3d_engineering',2020,#1838);
#1838=APPLICATION_CONTEXT('managed model based 3d engineering');
ENDSEC;
END-ISO-10303-21;
